<?xml version="1.0" encoding="UTF-8"?>
<svg version="1.1" xmlns="http://www.w3.org/2000/svg" width="3840" height="3840">
<path d="M0 0 C4.71853441 0.00753938 9.43698475 0.0048161 14.15551609 -0.00360411 C47.53253701 -0.06154854 80.80459691 0.35987722 114.13232273 2.25713807 C114.82865692 2.2960164 115.52499111 2.33489473 116.24242634 2.37495118 C124.58686009 2.84105731 132.92279909 3.38986446 141.25732273 4.00713807 C142.38925052 4.08950715 143.52117832 4.17187623 144.68740696 4.25674134 C261.79809032 12.84060753 377.49400203 32.28538721 782.13232273 162.25713807 C783.29151218 162.76873475 784.45070163 163.28033143 785.64501804 163.80743104 C803.7139217 171.78542488 821.60845773 180.10925996 839.45509189 188.57020265 C843.24421378 190.36614102 847.03805828 192.15111564 850.83935398 193.92120057 C859.28535623 197.86182664 867.58284649 202.00542757 875.80663913 206.3919037 C881.80009109 209.58285624 887.85751553 212.62474082 893.94482273 215.63213807 C904.24434393 220.73900282 914.33007327 226.19070613 924.39111179 231.74981385 C927.10767286 233.24358372 929.8328965 234.7200373 932.56201023 236.19073182 C944.14995758 242.44272713 955.56704693 248.94360238 966.91747898 255.61651307 C972.25928234 258.75525731 977.62926874 261.84246633 983.00610203 264.92071229 C995.54978548 272.10886303 1007.90072982 279.55130821 1020.13232273 287.25713807 C1021.68045973 288.22855612 1023.22863612 289.1999114 1024.77685398 290.17120057 C1028.7066916 292.64112188 1032.62750664 295.1249886 1036.54492038 297.61455995 C1038.34278744 298.75591205 1040.14204343 299.89507803 1041.94238132 301.0325287 C1058.91827027 311.76005488 1075.56962631 322.90733804 1092.13232273 334.25713807 C1093.70768521 335.33289084 1095.28318467 336.40844307 1096.85888523 337.48370057 C1106.35413069 343.97436532 1115.76345807 350.58556238 1125.13232273 357.25713807 C1125.84614109 357.76470643 1126.55995945 358.27227479 1127.29540867 358.79522401 C1138.05111057 366.45715098 1148.59917278 374.36667387 1159.08154148 382.39776307 C1163.55291298 385.82206799 1168.05474794 389.20329057 1172.56982273 392.56963807 C1179.26517264 397.57106446 1185.85087151 402.70030403 1192.4013657 407.88946229 C1194.17338073 409.28957911 1195.95078055 410.68256959 1197.72997898 412.07354432 C1204.93999236 417.71195658 1212.06712888 423.43751173 1219.13232273 429.25713807 C1220.92389979 430.71558148 1222.71556775 432.17391324 1224.50732273 433.63213807 C1229.14623412 437.42520807 1233.72482939 441.28446214 1238.28930515 445.16631776 C1241.76436387 448.11647901 1245.27667446 451.01363722 1248.81982273 453.88213807 C1253.21890105 457.45997023 1257.4278265 461.20272328 1261.61669773 465.02276307 C1264.14562568 467.26895374 1266.74282187 469.39245025 1269.38232273 471.50713807 C1275.14610566 476.16721789 1280.51995894 481.19288329 1285.92138523 486.26104432 C1288.30591758 488.49628541 1290.71994333 490.68414087 1293.19482273 492.81963807 C1298.3818241 497.30032436 1303.37560772 501.99413925 1308.40038913 506.65459901 C1310.13372554 508.25843608 1311.87233812 509.85634182 1313.61279148 511.45245057 C1318.64978496 516.0755627 1323.65261992 520.70582829 1328.43629307 525.5935486 C1330.06470671 527.19081535 1331.74809558 528.65458948 1333.49145359 530.12456971 C1339.81333159 535.62954194 1345.65484701 541.635902 1351.57372898 547.56573182 C1352.86817463 548.85950241 1354.16276857 550.15312464 1355.45750278 551.44660646 C1358.15957423 554.14721047 1360.85984654 556.849597 1363.5588364 559.55328065 C1367.00044263 563.00058356 1370.44651978 566.44337658 1373.89396614 569.88483793 C1376.56479984 572.5520402 1379.23322517 575.22164175 1381.9009518 577.89195138 C1383.16994856 579.16161027 1384.43967483 580.4305405 1385.71017498 581.698695 C1397.68201107 593.65326979 1397.68201107 593.65326979 1402.83396763 599.73859864 C1404.65207279 601.86503106 1406.62531768 603.81004362 1408.63232273 605.75713807 C1412.04044861 609.06352885 1415.1542011 612.55091545 1418.2631821 616.1340912 C1421.30294265 619.58677638 1424.46912771 622.91784766 1427.63232273 626.25713807 C1432.04095644 630.91120087 1436.36243113 635.61631422 1440.56493992 640.45782167 C1442.51201227 642.6930122 1444.50726742 644.88183811 1446.50732273 647.06963807 C1450.45603718 651.43999491 1454.17859483 655.96016886 1457.88232273 660.53838807 C1460.06733842 663.17861537 1462.32403664 665.72443528 1464.63232273 668.25713807 C1468.47743148 672.48078084 1472.09990444 676.84411737 1475.69091648 681.28448182 C1478.40951897 684.59465221 1481.20317408 687.83208437 1484.00732273 691.06963807 C1488.44005738 696.20209405 1492.69379402 701.44097966 1496.84887546 706.79986268 C1500.49634924 711.49002763 1504.26921542 716.06560922 1508.06982273 720.63213807 C1513.17006703 726.77575615 1518.05673587 733.03837366 1522.80834812 739.45464784 C1525.96892022 743.72076336 1529.20206188 747.91486615 1532.50732273 752.06963807 C1538.65492901 759.8237772 1544.48384788 767.80692523 1550.32519382 775.7927826 C1552.11450001 778.2328335 1553.9126921 780.66604312 1555.71435398 783.09698182 C1562.80967521 792.67444636 1569.7827992 802.32487812 1576.61376804 812.09258729 C1578.14067375 814.26904164 1579.678297 816.43756367 1581.21826023 818.60479432 C1613.99273192 864.87492771 1644.31464532 913.03366854 1672.42285007 962.26739198 C1674.03366594 965.08459437 1675.65344691 967.89639612 1677.27685398 970.70635682 C1684.21890814 982.74450984 1690.89277835 994.91502921 1697.46240085 1007.1599701 C1699.06180941 1010.12635855 1700.68014806 1013.08152804 1702.30419773 1016.03448182 C1711.01983448 1031.97446717 1719.2022804 1048.1796638 1727.3374123 1064.42144471 C1728.23776054 1066.21810146 1729.13962996 1068.01399566 1730.04153293 1069.80987245 C1738.73984162 1087.14622686 1747.07592934 1104.61453455 1755.13232273 1122.25713807 C1755.52016941 1123.10608644 1755.90801609 1123.9550348 1756.3076157 1124.82970887 C1758.50395801 1129.6483994 1760.67272057 1134.47882049 1762.81982273 1139.31963807 C1763.30382541 1140.40977708 1763.30382541 1140.40977708 1763.79760593 1141.5219391 C1784.84465718 1189.00735777 1803.78128495 1237.30667696 1821.13232273 1286.25713807 C1821.58351475 1287.52920106 1821.58351475 1287.52920106 1822.04382175 1288.82696229 C1842.23321926 1345.85116837 1858.88706639 1404.00108258 1873.49029392 1462.68560487 C1874.10755867 1465.15795001 1874.73093213 1467.62866501 1875.35644382 1470.09893495 C1899.87689039 1567.1515111 1914.87844927 1667.11449211 1927.02517551 1833.77996522 C1927.09868643 1835.47948902 1927.17747377 1837.17879036 1927.26071018 1838.87786561 C1928.42932381 1862.81452984 1928.31974311 1886.77080616 1928.31762546 1910.72979432 C1928.3175448 1915.54558823 1928.32440492 1920.3612858 1928.33813328 1925.17705995 C1928.42896309 1957.59029012 1927.86033753 1989.88773337 1926.13232273 2022.25713807 C1926.09337768 2022.99293596 1926.05443264 2023.72873384 1926.01430744 2024.48682863 C1925.55168638 2033.16634059 1925.00107191 2041.83745946 1924.38232273 2050.50713807 C1924.29995365 2051.68142366 1924.21758457 2052.85570924 1924.13271946 2054.06557924 C1918.47390404 2134.0667595 1907.71061406 2213.59024016 1892.13232273 2292.25713807 C1891.93809726 2293.23922242 1891.7438718 2294.22130677 1891.54376072 2295.23315126 C1872.00289403 2393.77751779 1844.70958936 2490.95349877 1785.13232273 2649.25713807 C1784.72977268 2650.24079347 1784.72977268 2650.24079347 1784.31909031 2651.24432069 C1759.0201067 2712.98231219 1731.13994191 2774.50575219 1698.52587742 2832.7434662 C1696.99730614 2835.50067886 1695.50339121 2838.27483892 1694.01513523 2841.05401307 C1687.43534507 2853.33966076 1680.60432706 2865.44227323 1673.53466648 2877.45245057 C1670.84567937 2882.02334939 1668.20815826 2886.62057312 1665.59545749 2891.23540956 C1655.45074244 2909.15328188 1644.60666878 2926.6377599 1633.55615085 2944.00811464 C1632.19047087 2946.16528953 1630.83861949 2948.33040014 1629.49169773 2950.49932557 C1600.80191586 2996.57354478 1569.40491824 3041.3834951 1536.13232273 3084.25713807 C1534.90085805 3085.85937695 1533.67172856 3087.46338991 1532.44262546 3089.06744081 C1523.51478289 3100.70979471 1514.4070939 3112.19472937 1505.13622898 3123.56573182 C1502.70116094 3126.55356866 1500.2849486 3129.5556084 1497.88232273 3132.56963807 C1491.26033207 3140.86092221 1484.50871363 3149.02299225 1477.57910007 3157.05816346 C1474.49556082 3160.6412184 1471.47734725 3164.26621548 1468.50732273 3167.94463807 C1464.65771136 3172.68691295 1460.60519602 3177.20642769 1456.47216648 3181.70245057 C1453.90440303 3184.50598529 1451.40335398 3187.36058682 1448.90966648 3190.22979432 C1446.07799325 3193.45976884 1443.19029766 3196.63904463 1440.31201023 3199.82745057 C1438.44087179 3201.91319987 1436.59307442 3204.01531436 1434.75732273 3206.13213807 C1430.47442878 3211.04515894 1426.05394691 3215.83152889 1421.63671726 3220.62334901 C1420.08960721 3222.3035276 1418.54627848 3223.98712099 1417.00341648 3225.67120057 C1412.35987236 3230.73149156 1407.70597707 3235.75557791 1402.79615635 3240.56086427 C1401.19880281 3242.18936181 1399.73494858 3243.87281931 1398.26489109 3245.61626893 C1392.75991887 3251.93814693 1386.7535588 3257.77966235 1380.82372898 3263.69854432 C1379.52995839 3264.99298997 1378.23633616 3266.28758392 1376.94285434 3267.58231813 C1374.24225034 3270.28438958 1371.5398638 3272.98466188 1368.83618015 3275.68365175 C1365.38887724 3279.12525798 1361.94608423 3282.57133512 1358.50462288 3286.01878148 C1355.83742061 3288.68961518 1353.16781905 3291.35804051 1350.49750942 3294.02576715 C1349.22785053 3295.2947639 1347.9589203 3296.56449018 1346.6907658 3297.83499032 C1334.73619102 3309.80682641 1334.73619102 3309.80682641 1328.65086216 3314.95878297 C1326.52442974 3316.77688814 1324.57941718 3318.75013302 1322.63232273 3320.75713807 C1319.32593195 3324.16526395 1315.83854535 3327.27901644 1312.2553696 3330.38799745 C1308.80268442 3333.427758 1305.47161314 3336.59394306 1302.13232273 3339.75713807 C1297.47825993 3344.16577178 1292.77314658 3348.48724648 1287.93163913 3352.68975526 C1285.6964486 3354.63682761 1283.5076227 3356.63208276 1281.31982273 3358.63213807 C1277.85702191 3361.76136634 1274.32553269 3364.76214156 1270.69482273 3367.69463807 C1266.8914477 3370.77050395 1263.23149621 3373.94466973 1259.63232273 3377.25713807 C1255.21592129 3381.31697453 1250.67068751 3385.15037628 1246.00341648 3388.91729432 C1242.90245256 3391.44447444 1239.86066818 3394.03339812 1236.81982273 3396.63213807 C1231.85915028 3400.85833133 1226.79178744 3404.91948437 1221.64697117 3408.91851503 C1216.88298354 3412.63424205 1212.21993243 3416.46272738 1207.56982273 3420.31963807 C1200.54513762 3426.13764328 1193.39792143 3431.74339692 1186.13232273 3437.25713807 C1184.13136327 3438.79755924 1182.13139294 3440.33926594 1180.13232273 3441.88213807 C1177.80034653 3443.67557431 1175.4663113 3445.46632193 1173.13232273 3447.25713807 C1172.34228855 3447.86396425 1171.55225437 3448.47079042 1170.73827976 3449.09600526 C1160.57834294 3456.89374247 1150.38935021 3464.61156189 1139.9194321 3471.9880951 C1137.24049376 3473.89043411 1134.58630428 3475.82643127 1131.92919773 3477.7590912 C1078.39132907 3516.64892412 1022.39392375 3552.13986161 965.13232273 3585.25713807 C964.24093601 3585.77372987 963.34954929 3586.29032167 962.43115085 3586.82256776 C950.43470406 3593.76623603 938.3194214 3600.46389168 926.11279148 3607.03057557 C922.22928021 3609.12029544 918.35688905 3611.22819646 914.49560398 3613.35870057 C904.44176892 3618.9019298 894.32143643 3624.23811272 884.02807468 3629.3240326 C878.53030857 3632.04318871 873.09404647 3634.84786652 867.69482273 3637.75713807 C858.46173079 3642.70116856 849.01816001 3647.17953555 839.54589695 3651.64385682 C836.5320549 3653.0682216 833.52292818 3654.50184715 830.5154404 3655.93954164 C749.36301294 3694.71069441 665.21499523 3727.28615262 388.13232273 3803.25713807 C387.16451877 3803.45418336 386.19671482 3803.65122865 385.19958347 3803.85424501 C305.3445303 3820.08468832 224.51232415 3830.59430538 143.25732273 3836.50713807 C142.21587101 3836.58427034 141.17441929 3836.6614026 140.10140842 3836.7408722 C132.11597131 3837.32435826 124.12664902 3837.8133439 116.13232273 3838.25713807 C115.37525909 3838.2997363 114.61819546 3838.34233453 113.8381905 3838.38622361 C80.77482267 3840.23246499 47.7550051 3840.62253604 14.64489979 3840.57519609 C11.98636469 3840.57145536 9.3278421 3840.56841691 6.66930622 3840.56676561 C-32.40076231 3840.54242463 -71.38051774 3840.34491689 -110.3665176 3837.51037294 C-114.05107045 3837.24387346 -117.73635145 3836.98979768 -121.42187649 3836.73711854 C-221.1320102 3829.82295503 -320.47507557 3815.33083731 -572.0515762 3751.14916688 C-574.81464246 3750.27393739 -577.57904997 3749.40306528 -580.34375149 3748.53301698 C-664.16483427 3722.10266332 -745.86973844 3688.99806941 -825.11621243 3651.04913026 C-828.43659115 3649.46034067 -831.76540507 3647.89017121 -835.09814602 3646.32745057 C-844.11251954 3642.0940929 -852.99749719 3637.68892354 -861.78466946 3633.00103456 C-867.36830768 3630.02522238 -873.00630263 3627.18147978 -878.68017727 3624.38213807 C-888.6353138 3619.45073489 -898.36860874 3614.14738037 -908.09423977 3608.78057557 C-910.8245162 3607.28084627 -913.56297147 3605.79742621 -916.30517727 3604.31963807 C-928.01067465 3598.00332096 -939.53823669 3591.42726808 -951.00439602 3584.68682557 C-955.54499283 3582.02060973 -960.11251708 3579.40768804 -964.69799954 3576.81963807 C-983.63063766 3566.12450488 -1002.03686252 3554.52271906 -1020.37402493 3542.84258729 C-1023.08038239 3541.12190143 -1025.79243143 3539.4103777 -1028.50439602 3537.69854432 C-1052.40636668 3522.56114643 -1075.79199113 3506.62419998 -1098.86767727 3490.25713807 C-1099.80571194 3489.59246522 -1099.80571194 3489.59246522 -1100.7626968 3488.91436464 C-1104.20226059 3486.47422833 -1107.63216819 3484.02102583 -1111.05566555 3481.5584076 C-1113.03053147 3480.14018673 -1115.00968692 3478.72805954 -1116.98877102 3477.31573182 C-1128.02631221 3469.41614639 -1138.83432113 3461.23811934 -1149.60742337 3452.98272401 C-1152.40799748 3450.84463179 -1155.22847301 3448.7355501 -1158.05517727 3446.63213807 C-1169.60514479 3437.99019936 -1180.94424765 3429.07773046 -1192.10669094 3419.94170839 C-1196.33515764 3416.48478282 -1200.61421666 3413.10384924 -1204.93017727 3409.75713807 C-1210.60687823 3405.34246555 -1216.0540634 3400.69942216 -1221.46240383 3395.96123964 C-1225.14608628 3392.73633083 -1228.87207743 3389.58579907 -1232.68017727 3386.50713807 C-1237.04282186 3382.97578026 -1241.20571505 3379.272764 -1245.35205227 3375.49151307 C-1247.88098022 3373.24532241 -1250.47817641 3371.1218259 -1253.11767727 3369.00713807 C-1258.8814602 3364.34705826 -1264.25531349 3359.32139286 -1269.65673977 3354.25323182 C-1272.04127212 3352.01799074 -1274.45529787 3349.83013528 -1276.93017727 3347.69463807 C-1281.55115806 3343.70423888 -1286.00796934 3339.53608821 -1290.48486477 3335.38604432 C-1292.68989283 3333.34268451 -1294.9027911 3331.30860505 -1297.12548977 3329.28448182 C-1301.90092632 3324.93510653 -1306.62227482 3320.56624763 -1311.14296108 3315.94941407 C-1312.76928166 3314.35368296 -1314.44690128 3312.89317845 -1316.18969876 3311.42681581 C-1322.7568366 3305.70866298 -1328.81676161 3299.4516618 -1334.96533352 3293.29229432 C-1336.32703986 3291.93126294 -1337.68889449 3290.57037992 -1339.05088955 3289.20963746 C-1341.89419646 3286.36779852 -1344.73570326 3283.52417526 -1347.57592922 3280.67925721 C-1351.19913758 3277.05035215 -1354.8268177 3273.42595587 -1358.4558664 3269.80289251 C-1361.26566873 3266.99672017 -1364.07306467 3264.18815008 -1366.87976032 3261.37887079 C-1368.21574297 3260.04222561 -1369.55245621 3258.70631023 -1370.88994175 3257.37116891 C-1383.49658223 3244.7817836 -1383.49658223 3244.7817836 -1388.61375576 3238.73124391 C-1390.26073243 3236.79506377 -1392.03987373 3235.0219139 -1393.86767727 3233.25713807 C-1396.97013729 3230.19596554 -1399.84874152 3227.02571539 -1402.68798977 3223.72198182 C-1405.68111064 3220.3372878 -1408.77595126 3217.05164648 -1411.86767727 3213.75713807 C-1416.06746378 3209.27780345 -1420.23462992 3204.78858286 -1424.23877102 3200.13213807 C-1426.20432816 3197.86962626 -1428.22441036 3195.66023125 -1430.24267727 3193.44463807 C-1433.37190554 3189.98183725 -1436.37268076 3186.45034804 -1439.30517727 3182.81963807 C-1442.38104315 3179.01626305 -1445.55520893 3175.35631156 -1448.86767727 3171.75713807 C-1452.92751372 3167.34073663 -1456.76091548 3162.79550286 -1460.52783352 3158.12823182 C-1463.05501364 3155.02726791 -1465.64393732 3151.98548352 -1468.24267727 3148.94463807 C-1472.46887053 3143.98396563 -1476.53002356 3138.91660279 -1480.52905422 3133.77178651 C-1484.24478125 3129.00779888 -1488.07326658 3124.34474777 -1491.93017727 3119.69463807 C-1497.74818248 3112.66995296 -1503.35393612 3105.52273678 -1508.86767727 3098.25713807 C-1510.40809844 3096.25617862 -1511.94980514 3094.25620828 -1513.49267727 3092.25713807 C-1514.77673373 3090.58656765 -1516.05964386 3088.91512225 -1517.34228665 3087.2434662 C-1518.4518591 3085.79860681 -1519.56270694 3084.35472658 -1520.6743179 3082.91143495 C-1528.64547729 3072.55608032 -1536.47438663 3062.1404586 -1543.94970852 3051.42120057 C-1546.99469284 3047.05710063 -1550.11621062 3042.75055023 -1553.24267727 3038.44463807 C-1564.86138173 3022.37825523 -1576.05628248 3006.06535624 -1587.05517727 2989.56963807 C-1587.60644284 2988.74323823 -1588.1577084 2987.91683839 -1588.72567898 2987.06539613 C-1596.19874317 2975.85503537 -1603.58455858 2964.59183272 -1610.86767727 2953.25713807 C-1611.43156155 2952.38017274 -1611.99544583 2951.50320741 -1612.57641751 2950.59966737 C-1631.91089705 2920.41347818 -1650.18090554 2889.49663169 -1667.57470852 2858.15557557 C-1669.62083819 2854.47289936 -1671.69528781 2850.81088671 -1673.81689602 2847.17120057 C-1685.18802322 2827.58634042 -1695.23506953 2807.28880351 -1705.44091946 2787.08135682 C-1706.81083497 2784.36965547 -1708.18274454 2781.65897236 -1709.55517727 2778.94854432 C-1719.39823091 2759.4971463 -1729.05938098 2739.98982729 -1738.0283218 2720.1162079 C-1738.9104066 2718.16249782 -1739.79523327 2716.21004284 -1740.68017727 2714.25762635 C-1764.40296329 2661.84780121 -1785.64953389 2608.47504664 -1804.86767727 2554.25713807 C-1805.31886929 2552.98507509 -1805.31886929 2552.98507509 -1805.77917629 2551.68731385 C-1834.33841611 2471.02279796 -1856.80796404 2388.08905399 -1873.86767727 2304.25713807 C-1874.18835171 2302.68310212 -1874.18835171 2302.68310212 -1874.51550442 2301.07726747 C-1891.9195641 2215.3895647 -1903.52463897 2128.54262515 -1908.86767727 2041.25713807 C-1908.94085171 2040.06432222 -1908.94085171 2040.06432222 -1909.01550442 2038.84740907 C-1909.35714429 2033.23485468 -1909.68126466 2027.62144759 -1909.99267727 2022.00713807 C-1910.03147 2021.31322969 -1910.07026272 2020.6193213 -1910.11023098 2019.90438539 C-1910.34999665 2015.54827204 -1910.56139398 2011.19142171 -1910.75338894 2006.83294374 C-1910.83231706 2005.05407894 -1910.91449133 2003.27535625 -1910.99929959 2001.4967621 C-1912.10920996 1977.69020204 -1912.05515014 1953.87278022 -1912.05298001 1930.04571229 C-1912.05289937 1925.38909672 -1912.05975592 1920.73258086 -1912.07348782 1916.07598573 C-1912.16716344 1883.75250861 -1911.55161511 1851.53874982 -1909.86767727 1819.25713807 C-1909.82873223 1818.50923257 -1909.78978718 1817.76132707 -1909.74966198 1816.99075776 C-1909.29190978 1808.30229213 -1908.7394352 1799.62278438 -1908.11767727 1790.94463807 C-1907.99412365 1789.18645753 -1907.99412365 1789.18645753 -1907.868074 1787.39275819 C-1899.46530629 1668.75735493 -1879.76702322 1551.4645283 -1733.79297024 1111.25487977 C-1732.8614489 1109.24369079 -1731.93269841 1107.23124037 -1731.00439602 1105.21856385 C-1716.68378869 1074.20399141 -1701.7795052 1043.37298227 -1685.12353665 1013.53838807 C-1682.99233608 1009.66709374 -1680.96755253 1005.74085433 -1678.93017727 1001.81963807 C-1673.18069281 990.8120978 -1667.03739718 980.03317121 -1660.86767727 969.25713807 C-1660.27293606 968.21605897 -1659.67819485 967.17497987 -1659.06543118 966.10235292 C-1645.18693776 941.82884207 -1630.79515025 917.89956279 -1615.86767727 894.25713807 C-1615.26536282 893.30145936 -1614.66304837 892.34578065 -1614.04248196 891.36114198 C-1606.16330611 878.86981754 -1598.13468901 866.49500755 -1589.86767727 854.25713807 C-1588.78945706 852.65829774 -1588.78945706 852.65829774 -1587.68945462 851.0271576 C-1578.22774924 837.00110017 -1568.73436489 823.00292069 -1558.86767727 809.25713807 C-1558.36107571 808.55008729 -1557.85447415 807.84303651 -1557.33252102 807.11455995 C-1541.87693436 785.56407978 -1526.14262318 764.19748384 -1509.86767727 743.25713807 C-1509.22862454 742.43463563 -1509.22862454 742.43463563 -1508.57666165 741.59551698 C-1502.11209358 733.28974416 -1495.5159889 725.09673062 -1488.86377102 716.94073182 C-1486.46771674 714.001104 -1484.09827817 711.04183798 -1481.74267727 708.06963807 C-1478.24845365 703.68530696 -1474.63457282 699.41020785 -1471.00171047 695.14092714 C-1468.10418267 691.7320709 -1465.25004604 688.29338946 -1462.43017727 684.81963807 C-1457.54701993 678.826278 -1452.51927042 672.96303719 -1447.46777493 667.11163026 C-1445.84202593 665.2274085 -1444.21999669 663.34002819 -1442.59814602 661.45245057 C-1436.60209146 654.48845896 -1430.51505643 647.630903 -1424.27783352 640.88213807 C-1422.2935686 638.72099379 -1420.34877667 636.53874099 -1418.43017727 634.31963807 C-1413.89931319 629.09835661 -1409.17069731 624.05700287 -1404.47021633 618.98907167 C-1402.86637926 617.25573526 -1401.26847353 615.51712268 -1399.67236477 613.77666932 C-1395.04952746 608.73997526 -1390.41958103 603.73738204 -1385.53212124 598.95402223 C-1383.93022483 597.32090469 -1382.46136191 595.63230082 -1380.98657376 593.88433534 C-1375.55319968 587.64457469 -1369.63070398 581.87635084 -1363.77783352 576.03448182 C-1362.5064832 574.7624564 -1361.23528123 573.49028269 -1359.96421963 572.21796876 C-1357.31069392 569.5629758 -1354.65538633 566.90978164 -1351.99878079 564.2578705 C-1348.61201192 560.8767983 -1345.22975335 557.49125549 -1341.84882599 554.10434324 C-1339.22794709 551.47983239 -1336.60466836 548.85773063 -1333.98068196 546.23632699 C-1332.73335183 544.98965886 -1331.48674997 543.7422616 -1330.24092442 542.4940899 C-1318.49950588 530.73541014 -1318.49950588 530.73541014 -1312.39390713 525.56318361 C-1310.2654897 523.74182619 -1308.3173159 521.76676558 -1306.36767727 519.75713807 C-1303.06128649 516.34901219 -1299.57389989 513.2352597 -1295.99072415 510.1262787 C-1292.53803896 507.08651815 -1289.20696768 503.92033309 -1285.86767727 500.75713807 C-1281.21361447 496.34850437 -1276.50850112 492.02702967 -1271.66699368 487.82452089 C-1269.43180315 485.87744854 -1267.24297724 483.88219338 -1265.05517727 481.88213807 C-1261.59237645 478.75290981 -1258.06088724 475.75213458 -1254.43017727 472.81963807 C-1250.62680224 469.74377219 -1246.96685075 466.56960641 -1243.36767727 463.25713807 C-1238.95127583 459.19730162 -1234.40604205 455.36389986 -1229.73877102 451.59698182 C-1226.6378071 449.06980171 -1223.59602272 446.48087803 -1220.55517727 443.88213807 C-1215.59450483 439.65594482 -1210.52714199 435.59479178 -1205.38232571 431.59576112 C-1200.61833808 427.8800341 -1195.95528697 424.05154877 -1191.30517727 420.19463807 C-1184.28049216 414.37663287 -1177.13327598 408.77087922 -1169.86767727 403.25713807 C-1167.86671782 401.71671691 -1165.86674748 400.17501021 -1163.86767727 398.63213807 C-1161.53570107 396.83870183 -1159.20166584 395.04795421 -1156.86767727 393.25713807 C-1156.07764309 392.6503119 -1155.28760891 392.04348573 -1154.4736343 391.41827089 C-1144.31369748 383.62053367 -1134.12470476 375.90271426 -1123.65478665 368.52618104 C-1120.9758483 366.62384203 -1118.32165883 364.68784488 -1115.66455227 362.75518495 C-1072.03283777 331.06116856 -1026.73272831 301.26671441 -980.36279446 273.73858339 C-977.81295492 272.22464735 -975.26610603 270.70575709 -972.71923977 269.18682557 C-950.97984564 256.25128553 -929.01656937 243.76009508 -906.72607571 231.79961854 C-903.87194 230.25943837 -901.02840764 228.70136263 -898.18798977 227.13604432 C-888.60771026 221.85849563 -878.98428054 216.73614108 -869.17505032 211.89605409 C-864.47306774 209.5730756 -859.81476001 207.18932185 -855.19018704 204.71587831 C-832.91256682 192.80094932 -809.90557286 182.32073313 -786.87390286 171.96242982 C-782.52453843 170.0062517 -778.18239113 168.03498296 -773.84423977 166.05401307 C-680.52459724 123.58994318 -582.94220428 89.58496776 -467.86767727 59.25713807 C-466.34391476 58.86395387 -466.34391476 58.86395387 -464.78936917 58.46282655 C-366.93616173 33.28346576 -266.81813141 16.22995225 -143.86767727 5.25713807 C-142.90402249 5.17935121 -141.9403677 5.10156434 -140.94751126 5.0214203 C-138.14510834 4.79718488 -135.34243635 4.57683427 -132.53955227 4.35870057 C-131.37253781 4.26702104 -131.37253781 4.26702104 -130.18194729 4.17348939 C-86.80584765 0.87047012 -43.49116807 -0.07754992 0 0 Z " fill="#F7931A" transform="translate(1911.8676772713661,-0.25713807344436646)"/>
<path d="M0 0 C9.66299008 2.01479375 19.25762405 4.22862032 28.83984375 6.59765625 C30.26135155 6.94757675 31.68289184 7.29736526 33.10446167 7.64703369 C36.92097859 8.5865894 40.73672504 9.52923722 44.55224991 10.47281265 C46.95959995 11.0679636 49.36714977 11.66230023 51.77474976 12.25643921 C78.75798259 18.91682774 105.70744063 25.70636356 132.64257812 32.55834961 C135.52993883 33.29284172 138.41730888 34.02729707 141.3046875 34.76171875 C142.35895306 35.0299133 142.35895306 35.0299133 143.43451691 35.30352592 C158.42579215 39.11634745 173.42930569 42.87934276 188.4375 46.625 C189.56201569 46.90566315 190.68653137 47.18632629 191.84512329 47.47549438 C197.89632152 48.98538133 203.94794049 50.49356917 210 52 C209.4900923 58.94639024 208.33856433 65.46795631 206.59619141 72.20458984 C206.34918267 73.18375587 206.10217394 74.16292189 205.84768009 75.17175961 C205.02234826 78.43655971 204.18688833 81.69868142 203.3515625 84.9609375 C202.75280522 87.32194606 202.15474607 89.68313177 201.55732727 92.04447937 C200.26634876 97.14207981 198.97125818 102.23861634 197.6725769 107.33425903 C195.60261304 115.4570729 193.54342685 123.58259826 191.48657227 131.70874023 C191.31185933 132.39892899 191.1371464 133.08911775 190.95713913 133.80022132 C190.24117709 136.62857603 189.52523324 139.45693534 188.80939323 142.28532094 C187.70587794 146.64530366 186.60163368 151.005101 185.49684149 155.36476034 C177.15834297 188.27068808 168.90593617 221.19806402 160.6715374 254.13017464 C159.14235504 260.2451276 157.61078432 266.35948045 156.07867056 272.47369951 C154.61688739 278.30777538 153.15694918 284.14231095 151.69843668 289.97720534 C150.8575218 293.3412329 150.01596466 296.70509546 149.17238808 300.06845665 C145.39887756 315.12182032 141.74966134 330.1946744 138.30366516 345.3265686 C136.56825052 352.93037233 134.70883879 360.50268301 132.81201172 368.06762695 C132.23099284 370.38842131 131.65646093 372.71076999 131.08203125 375.03320312 C130.70610859 376.53915726 130.3298221 378.04502064 129.953125 379.55078125 C129.78540588 380.23086746 129.61768677 380.91095367 129.44488525 381.61164856 C128.5387081 385.20122678 127.46727439 388.59988947 126 392 C126.78689209 392.10812012 127.57378418 392.21624023 128.38452148 392.32763672 C136.41583241 393.48897628 144.19821398 395.14218647 152.0625 397.125 C154.62043069 397.75680421 157.17872644 398.38657774 159.73828125 399.01171875 C160.73624222 399.2555706 160.73624222 399.2555706 161.75436401 399.50434875 C169.72545933 401.43838151 177.73811651 403.18197739 185.75 404.9375 C201.65374651 408.4296543 217.47710275 412.20615503 233.2890625 416.09033203 C238.75161991 417.42937736 244.21868008 418.74929415 249.6875 420.0625 C250.65985596 420.29622314 251.63221191 420.52994629 252.6340332 420.77075195 C258.45311758 422.16460458 264.27741397 423.53487826 270.10546875 424.890625 C271.13787941 425.13086647 271.13787941 425.13086647 272.19114685 425.3759613 C275.5743633 426.16274716 278.95806567 426.94735623 282.3425293 427.72875977 C283.557229 428.01033936 284.77192871 428.29191895 286.0234375 428.58203125 C287.64644775 428.95678589 287.64644775 428.95678589 289.30224609 429.33911133 C292 430 292 430 295 431 C295.10245529 430.37775166 295.20491058 429.75550331 295.31047058 429.11439896 C296.70273977 421.0412054 298.61404839 413.1313424 300.61328125 405.19042969 C300.9787539 403.72774606 301.34391812 402.26498534 301.70880127 400.80215454 C302.69839124 396.83868041 303.69236021 392.87631646 304.68718338 388.9141531 C305.74889292 384.6825761 306.80668393 380.45001949 307.86499023 376.21759033 C309.65828324 369.04811316 311.45421594 361.87930153 313.25195312 354.7109375 C315.49825415 345.75391176 317.74049694 336.79587609 319.98127079 327.83746624 C329.14570616 291.19902444 338.35891175 254.57335426 347.65543938 217.96820259 C352.39017968 199.3247836 357.10120768 180.67582709 361.75390625 162.01171875 C362.12862123 160.50886889 362.12862123 160.50886889 362.51090622 158.97565842 C364.70590659 150.1703291 366.89705214 141.36404222 369.08666992 132.55737305 C370.32442956 127.5797136 371.5644284 122.60261637 372.80583 117.62586403 C373.48624085 114.89511672 374.16400561 112.1637217 374.84169006 109.43229675 C375.24790558 107.80337816 375.6542638 106.17449513 376.06079102 104.5456543 C376.24398392 103.80412109 376.42717682 103.06258789 376.61592102 102.29858398 C377.88603803 97.22792393 377.88603803 97.22792393 379 95 C386.20849819 95.61720128 392.9580586 97.07230295 399.9609375 98.859375 C401.14235321 99.15581406 402.32376892 99.45225311 403.54098511 99.75767517 C406.80050706 100.57686872 410.05859732 101.401378 413.31617737 102.22823715 C416.81874247 103.11588445 420.32306315 103.99655082 423.82714844 104.87817383 C431.5612847 106.82553426 439.29313094 108.78188039 447.02453613 110.74005127 C452.11598579 112.02957371 457.2078596 113.31741594 462.29980469 114.60498047 C476.4984862 118.19554565 490.69703925 121.78660762 504.89379883 125.38476562 C520.51344028 129.34289017 536.13435905 133.29501237 551.76953125 137.19140625 C553.64422592 137.65875435 553.64422592 137.65875435 555.55679321 138.13554382 C561.22275024 139.5470802 566.88956276 140.95506444 572.55761719 142.3581543 C574.48763542 142.83770689 576.4176488 143.31727903 578.34765625 143.796875 C579.21099075 144.00933365 580.07432526 144.2217923 580.96382141 144.44068909 C586.77395282 145.88697641 586.77395282 145.88697641 589 147 C588.42702356 153.07557977 587.47782516 158.80074092 585.96899414 164.70751953 C585.66037917 165.94545006 585.66037917 165.94545006 585.34552956 167.20838928 C584.66435568 169.93463931 583.9748154 172.65869775 583.28515625 175.3828125 C582.7979936 177.32497998 582.31133625 179.26727426 581.82514954 181.20968628 C580.51728793 186.42841074 579.20205061 191.64525042 577.88536835 196.86175537 C576.49762904 202.36510577 575.11675991 207.87018022 573.73486328 213.375 C567.31672402 238.92758005 560.84978508 264.46776923 554.35757446 290.00161743 C546.76103616 319.88311137 539.2654295 349.78993546 531.780285 379.69948757 C530.60230649 384.40611064 529.42310426 389.11242597 528.24334717 393.81860352 C526.63487087 400.23520961 525.02915368 406.65250225 523.4251442 413.07022667 C522.83171359 415.443119 522.23751847 417.81582031 521.64245224 420.18830299 C517.79439688 435.53410552 514.12982941 450.91307431 510.61119461 466.33772469 C509.32425176 471.94346157 507.9781547 477.53491828 506.625 483.125 C506.36589844 484.20007812 506.10679688 485.27515625 505.83984375 486.3828125 C505.22768256 488.92214782 504.61444487 491.46121651 504 494 C504.54291687 494.10762161 505.08583374 494.21524323 505.64520264 494.3261261 C511.35266631 495.51758149 516.73205742 497.16719846 522.203125 499.16796875 C523.06648468 499.47939819 523.92984436 499.79082764 524.81936646 500.11169434 C527.63222992 501.12983178 530.44139741 502.15767112 533.25 503.1875 C534.21963684 503.54147858 535.18927368 503.89545715 536.18829346 504.26016235 C555.65306971 511.37570588 574.89248307 518.97760108 594 527 C594.66050354 527.27674561 595.32100708 527.55349121 596.00152588 527.83862305 C616.94828546 536.62428876 637.53376549 546.15300619 658 556 C659.07813965 556.51836426 660.1562793 557.03672852 661.26708984 557.57080078 C674.57379961 564.00599491 687.47910279 571.04778914 700.28076172 578.43310547 C702.85012187 579.91363639 705.42585369 581.38232874 708.00390625 582.84765625 C743.57352782 603.13897812 777.39397887 626.76283095 808 654 C808.52883789 654.46954102 809.05767578 654.93908203 809.60253906 655.42285156 C817.10160046 662.11792935 824.25399546 669.15621692 831.375 676.25 C832.21957764 677.08990479 833.06415527 677.92980957 833.93432617 678.79516602 C838.82898641 683.70243511 843.51923537 688.71269773 848 694 C848.5475293 694.6408252 849.09505859 695.28165039 849.65917969 695.94189453 C858.38815044 706.21955364 866.46020573 716.82222028 874 728 C874.59240479 728.87422607 874.59240479 728.87422607 875.19677734 729.76611328 C895.28032739 759.6087552 910.1347262 791.98071882 919.38427734 826.73388672 C919.92645466 828.72932282 920.51622623 830.71169748 921.11328125 832.69140625 C924.79735522 845.19449898 926.32562963 858.10386793 928 871 C928.12149414 871.87881836 928.24298828 872.75763672 928.36816406 873.66308594 C930.23603852 887.49650842 930.17884611 901.37988496 930.1875 915.3125 C930.18858765 916.25576141 930.18967529 917.19902283 930.1907959 918.17086792 C930.18874535 933.89050909 929.83814682 949.53063378 927.6875 965.125 C927.55778809 966.08744629 927.42807617 967.04989258 927.29443359 968.04150391 C925.81454626 978.74503684 923.98371132 989.37946106 922 1000 C921.81179688 1001.01352539 921.62359375 1002.02705078 921.4296875 1003.07128906 C910.33488395 1062.22508332 888.43919015 1122.90215269 850 1170 C849.26523438 1170.92554688 848.53046875 1171.85109375 847.7734375 1172.8046875 C834.05353392 1189.91820681 818.47770984 1206.68985138 801 1220 C800.00097656 1220.79277344 799.00195312 1221.58554688 797.97265625 1222.40234375 C784.76843766 1232.8411009 770.63645925 1241.71826816 756 1250 C755.34370605 1250.37479492 754.68741211 1250.74958984 754.01123047 1251.13574219 C724.24231416 1268.00405035 691.17219519 1279.10906255 658 1287 C658.89416626 1287.47288452 658.89416626 1287.47288452 659.80639648 1287.95532227 C694.79255693 1306.52246596 728.6912003 1327.36113621 759 1353 C759.99773437 1353.825 760.99546875 1354.65 762.0234375 1355.5 C777.64639239 1368.46855775 792.89085786 1382.46637135 806 1398 C807.19302734 1399.35931641 807.19302734 1399.35931641 808.41015625 1400.74609375 C840.27669082 1437.28116046 864.15511791 1482.02002655 875.33251953 1529.19726562 C875.98936609 1531.95534847 876.67787226 1534.70398967 877.37109375 1537.453125 C883.48487622 1562.27472429 885.22820779 1587.69253866 885.25 1613.1875 C885.25100708 1614.01960999 885.25201416 1614.85171997 885.25305176 1615.70904541 C885.23133992 1642.66684039 883.03284502 1669.50124236 878 1696 C877.80116211 1697.05638672 877.60232422 1698.11277344 877.39746094 1699.20117188 C873.98453333 1717.15776437 870.11516918 1734.86485939 864.79150391 1752.35375977 C864.1669681 1754.44177445 863.557935 1756.53442599 862.95458984 1758.62866211 C859.76019071 1769.70821958 856.22745307 1780.65130312 852.5 1791.5625 C852.19697968 1792.44984833 851.89395935 1793.33719666 851.58175659 1794.25143433 C833.51497467 1846.95322348 809.79350405 1898.43439043 776 1943 C775.54399414 1943.60618164 775.08798828 1944.21236328 774.61816406 1944.83691406 C766.44996625 1955.68183209 757.93289086 1966.13877088 748.6953125 1976.0859375 C746.222608 1978.75932527 743.79373619 1981.46536833 741.375 1984.1875 C734.68347903 1991.6304752 727.60651656 1998.50383065 720 2005 C718.99407683 2005.88069461 717.98893081 2006.76227731 716.984375 2007.64453125 C670.83310567 2047.98051127 614.30511437 2076.85642223 555 2092 C554.22350098 2092.20173828 553.44700195 2092.40347656 552.64697266 2092.61132812 C548.10923081 2093.78964245 543.55832035 2094.90351328 539 2096 C537.69769318 2096.32854248 536.39561464 2096.65799099 535.09375 2096.98828125 C524.69211324 2099.58273985 514.21284959 2101.38537704 503.62890625 2103.0703125 C500.04008459 2103.64558714 496.48097303 2104.29072643 492.921875 2105.02734375 C483.04484129 2107.03880873 473.02217592 2108.0094103 463 2109 C461.95534576 2109.10501831 461.95534576 2109.10501831 460.8895874 2109.2121582 C401.37506873 2115.1156401 340.46654591 2113.53209298 281 2108 C279.27425767 2107.84351698 277.54850935 2107.68710004 275.82275391 2107.53076172 C265.18956664 2106.55196391 254.59440622 2105.33009236 244 2104 C242.53494019 2103.81760773 242.53494019 2103.81760773 241.0402832 2103.63153076 C214.2841105 2100.29708848 187.59718581 2096.71086516 161.03767395 2092.04876709 C156.28705512 2091.21614624 151.53087598 2090.42503414 146.76953125 2089.65625 C133.41112482 2087.49368941 120.15508014 2085.19073082 107 2082 C106.91024808 2082.57463265 106.82049616 2083.14926531 106.72802448 2083.74131107 C105.12461216 2093.26575915 102.67831467 2102.5632108 100.29174805 2111.91381836 C99.80882098 2113.81775799 99.32626261 2115.72179117 98.84404182 2117.62590981 C97.80503395 2121.72611615 96.76389985 2125.82577427 95.72110939 2129.92502022 C93.16948989 2139.95688727 90.6302455 2149.99189079 88.08982456 2160.02659833 C87.19641186 2163.55524923 86.30260261 2167.08379953 85.40878391 2170.6123476 C79.02645276 2195.81511514 72.70507053 2221.03308162 66.39453125 2246.25390625 C66.11505567 2247.37078434 65.83558009 2248.48766242 65.54763556 2249.6383853 C62.43921629 2262.06104478 59.33245933 2274.48411932 56.22680664 2286.9074707 C53.62524958 2297.31429831 51.02099918 2307.72044965 48.41565591 2318.12632996 C46.12123792 2327.29086563 43.82866344 2336.45586123 41.53748626 2345.62120765 C40.19289536 2350.99982177 38.84763302 2356.3782653 37.50043678 2361.75622749 C36.01700257 2367.67872116 34.53614297 2373.6018529 33.05786133 2379.52563477 C32.82859156 2380.44400435 32.5993218 2381.36237393 32.36310446 2382.30857289 C29.35509895 2394.37209265 26.42646071 2406.4473952 23.74394703 2418.58815098 C23.53745376 2419.51300265 23.33096048 2420.43785433 23.11820984 2421.39073181 C22.9478506 2422.17020141 22.77749136 2422.949671 22.60196972 2423.75276089 C21.92895822 2426.26520914 21.00743757 2428.60418925 20 2431 C12.29134787 2429.69838879 4.73616465 2428.03520424 -2.83984375 2426.11328125 C-3.99499985 2425.82340836 -5.15015594 2425.53353546 -6.34031677 2425.23487854 C-9.53403822 2424.43286924 -12.72695647 2423.62774616 -15.91960907 2422.82149506 C-19.35728408 2421.95437208 -22.79610972 2421.09183782 -26.23486328 2420.22900391 C-32.37460429 2418.68802055 -38.51385283 2417.14508948 -44.65283203 2415.60107422 C-61.1648595 2411.44872683 -77.6799313 2407.30851971 -94.19637966 2403.17379475 C-99.25328739 2401.90774175 -104.30993131 2400.64065603 -109.36593628 2399.3710022 C-137.14812554 2392.36372721 -137.14812554 2392.36372721 -165.04476929 2385.83175659 C-173.78946721 2383.86749457 -182.39107375 2381.48327022 -191 2379 C-188.04029422 2365.28153092 -184.73631092 2351.664109 -181.32373047 2338.05200195 C-180.76102226 2335.80009322 -180.19851814 2333.54813348 -179.63619995 2331.29612732 C-178.11676456 2325.21356872 -176.59440919 2319.13174449 -175.0714469 2313.05006814 C-173.62029045 2307.25342718 -172.17120708 2301.45626811 -170.72203161 2295.65913167 C-167.83403883 2284.10666105 -164.94378548 2272.5547572 -162.05224609 2261.00317383 C-159.2908159 2249.9713631 -156.53095957 2238.93916035 -153.77294922 2227.90649414 C-139.71557086 2171.67448815 -125.65367089 2115.44395058 -111.35533714 2059.27261448 C-109.21354299 2050.85417718 -107.09312521 2042.43067481 -105 2034 C-105.68211548 2033.88642151 -106.36423096 2033.77284302 -107.0670166 2033.65582275 C-114.69894306 2032.36658686 -122.18019481 2030.55358311 -129.67773438 2028.65087891 C-131.73218009 2028.12952216 -133.78781708 2027.61311362 -135.84375 2027.09765625 C-143.74212549 2025.11137 -151.61511959 2023.04285196 -159.48144531 2020.93310547 C-164.64037274 2019.56498025 -169.81839556 2018.27900088 -175 2017 C-182.71238471 2015.0837308 -190.40592117 2013.12227628 -198.078125 2011.05078125 C-202.98092257 2009.72990688 -207.89781756 2008.46326827 -212.8125 2007.1875 C-232.9191846 2001.95736041 -252.96109344 1996.48314657 -273 1991 C-273.09379944 1992.02772522 -273.18759888 1993.05545044 -273.28424072 1994.11431885 C-274.10095695 2000.58727383 -275.84544816 2006.85869557 -277.45214844 2013.17089844 C-277.81310228 2014.60370781 -278.17363189 2016.03662411 -278.53377342 2017.46963787 C-279.51450103 2021.36698446 -280.50109206 2025.26282562 -281.48868799 2029.15843654 C-282.53802611 2033.30201152 -283.58181509 2037.44698402 -284.62619019 2041.59181213 C-286.4061615 2048.65306736 -288.18939939 2055.71349059 -289.97491455 2062.77334595 C-292.7480248 2073.73847019 -295.51406039 2084.70537223 -298.27880859 2095.67260742 C-299.19536729 2099.30809948 -300.11197175 2102.94358 -301.02859497 2106.57905579 C-301.36711213 2107.92169621 -301.36711213 2107.92169621 -301.71246803 2109.29146069 C-303.30007668 2115.58794137 -304.88855623 2121.88420191 -306.47750854 2128.18034363 C-312.79130855 2153.19876826 -319.09530069 2178.2195859 -325.35803223 2203.25085449 C-326.18896453 2206.5717495 -327.02121952 2209.89230781 -327.8548584 2213.21252441 C-331.59476139 2228.1091189 -335.27289485 2243.01187407 -338.68380737 2257.98809814 C-341.81829373 2271.68706207 -345.2099428 2285.32320497 -348.60595703 2298.95922852 C-349.57690003 2302.85994706 -350.53787243 2306.76305892 -351.49703598 2310.66668797 C-352.24479389 2313.70221663 -352.99976202 2316.7359173 -353.75678253 2319.76914787 C-354.1151789 2321.21062236 -354.47081237 2322.65278676 -354.82360077 2324.095644 C-355.31058435 2326.08462249 -355.80880249 2328.07084036 -356.30761719 2330.05688477 C-356.58708191 2331.18425552 -356.86654663 2332.31162628 -357.15447998 2333.47315979 C-358 2336 -358 2336 -360 2337 C-362.17434406 2336.6369009 -362.17434406 2336.6369009 -364.93269348 2335.93736267 C-366.5021683 2335.54489884 -366.5021683 2335.54489884 -368.10334969 2335.14450645 C-369.25880728 2334.8479497 -370.41426487 2334.55139294 -371.60473633 2334.24584961 C-373.47337287 2333.77549385 -375.34200942 2333.30513811 -377.21064615 2332.83478308 C-379.23588978 2332.3235246 -381.2602118 2331.80875423 -383.28430748 2331.29297066 C-387.578317 2330.19884057 -391.87473737 2329.11440118 -396.17158508 2328.03147888 C-401.51242195 2326.68481041 -406.85268161 2325.33589502 -412.19225925 2323.98424226 C-422.23011723 2321.44360814 -432.27267623 2318.92210131 -442.31787109 2316.41064453 C-443.07413166 2316.22155667 -443.83039223 2316.03246881 -444.60956979 2315.83765101 C-448.43894524 2314.88028597 -452.26839975 2313.92323762 -456.09789658 2312.96635818 C-463.01182216 2311.23865326 -469.92514394 2309.50853493 -476.8385241 2307.77864909 C-479.1429432 2307.20205792 -481.44738254 2306.62554774 -483.75182915 2306.04906654 C-491.60937291 2304.0834064 -499.4667849 2302.11722144 -507.32397461 2300.15014648 C-514.37171159 2298.38572355 -521.41965405 2296.62212415 -528.46784526 2294.85951656 C-532.14541535 2293.93980093 -535.82288386 2293.01968389 -539.50009727 2292.09854317 C-543.53189181 2291.08859025 -547.56414156 2290.08046675 -551.59643555 2289.07250977 C-553.38230576 2288.62469398 -553.38230576 2288.62469398 -555.20425415 2288.16783142 C-556.84280113 2287.75871017 -556.84280113 2287.75871017 -558.51445007 2287.34132385 C-559.45912486 2287.10492471 -560.40379965 2286.86852556 -561.37710094 2286.62496281 C-563.90868729 2286.02175724 -566.44487662 2285.49294539 -569 2285 C-567.65002891 2277.15363071 -566.02613948 2269.40262211 -564.20703125 2261.65234375 C-563.9109346 2260.38817123 -563.61483795 2259.12399872 -563.30976868 2257.82151794 C-558.3031741 2236.58135264 -552.92226836 2215.42958713 -547.61508942 2194.26312256 C-546.67776566 2190.52366482 -545.74140021 2186.7839684 -544.80535889 2183.04418945 C-536.5883092 2150.21455825 -528.32443536 2117.3971772 -519.98999023 2084.59716797 C-519.30317822 2081.89421702 -518.61640288 2079.19125675 -517.9296875 2076.48828125 C-517.68210914 2075.51380665 -517.68210914 2075.51380665 -517.42952919 2074.51964569 C-513.9809096 2060.94346383 -510.55460602 2047.36178042 -507.14935303 2033.7746582 C-506.56772636 2031.45478292 -505.98530169 2029.13510751 -505.4019165 2026.81567383 C-502.2120897 2014.12894407 -499.14669488 2001.42187951 -496.23001099 1988.66950989 C-493.6422564 1977.37652934 -490.89262122 1966.12500627 -488.125 1954.875 C-487.62223369 1952.8255606 -487.1196292 1950.7760815 -486.6171875 1948.7265625 C-485.41330592 1943.81725287 -484.20729689 1938.9084708 -483 1934 C-484.38058594 1933.74476563 -484.38058594 1933.74476563 -485.7890625 1933.484375 C-493.42337635 1932.02281593 -500.82878527 1930.27327405 -508.28955078 1928.06640625 C-515.45195621 1926.00788625 -522.70246986 1924.28273088 -529.9375 1922.5 C-539.81763084 1920.05987083 -549.68048809 1917.58136513 -559.50854492 1914.93798828 C-564.89377141 1913.4912335 -570.28992779 1912.08737528 -575.6875 1910.6875 C-577.39957642 1910.24301514 -577.39957642 1910.24301514 -579.14624023 1909.78955078 C-588.69251721 1907.31982185 -598.2559732 1904.92161744 -607.83276367 1902.57299805 C-614.03095168 1901.04041475 -620.18754726 1899.40034232 -626.33203125 1897.66796875 C-637.53580272 1894.51848881 -648.82998055 1891.73796888 -660.125 1888.9375 C-662.2201081 1888.41624074 -664.31516044 1887.89475726 -666.41015625 1887.37304688 C-671.24041776 1886.17048599 -676.07128922 1884.97040622 -680.90255737 1883.77189636 C-683.14290232 1883.21359252 -685.382309 1882.65151908 -687.62112427 1882.08711243 C-697.0555708 1879.70974865 -706.513668 1877.44630292 -715.98383713 1875.2160244 C-741.97392534 1869.08531367 -767.87198241 1862.59065148 -793.77185059 1856.09136963 C-799.73679984 1854.59502966 -805.70240494 1853.10130952 -811.66796875 1851.60742188 C-819.91003174 1849.54323101 -828.1518894 1847.47822422 -836.39346695 1845.41209602 C-852.10709279 1841.47286313 -867.82269235 1837.54154967 -883.5390625 1833.61328125 C-884.68745983 1833.32624014 -885.83585716 1833.03919903 -887.01905441 1832.7434597 C-893.34598409 1831.16209759 -899.67296696 1829.58094851 -906 1828 C-905.23472589 1823.85808355 -903.99945525 1820.34869898 -902.32421875 1816.47265625 C-901.90882088 1815.50629745 -901.90882088 1815.50629745 -901.48503113 1814.52041626 C-900.55725623 1812.36570023 -899.62242968 1810.21412019 -898.6875 1808.0625 C-898.02258638 1806.52269895 -897.35804511 1804.98273706 -896.69384766 1803.44262695 C-894.47003204 1798.29183728 -892.23525506 1793.14583321 -890 1788 C-889.18012892 1786.11102294 -888.36030557 1784.22202517 -887.54052734 1782.33300781 C-882.8496523 1771.52612273 -878.15019943 1760.72298479 -873.44723511 1749.9213562 C-870.18606677 1742.430158 -866.93366387 1734.93521417 -863.6875 1727.4375 C-858.14374719 1714.63477461 -852.5903154 1701.83626093 -847.03564453 1689.03826904 C-845.50410358 1685.50945503 -843.97272433 1681.98057089 -842.44140625 1678.45166016 C-841.69701797 1676.73623016 -841.69701797 1676.73623016 -840.93759155 1674.98614502 C-839.95697878 1672.7263394 -838.97636759 1670.4665331 -837.99575806 1668.20672607 C-835.69645806 1662.90826778 -833.39664098 1657.6100359 -831.0949707 1652.31260681 C-830.28738157 1650.45360488 -829.48035152 1648.59436011 -828.67333984 1646.73510742 C-827.69697315 1644.48606295 -826.7194684 1642.23751213 -825.74072266 1639.98950195 C-822.97542336 1633.62142058 -820.25211081 1627.23766486 -817.56105042 1620.83790588 C-815.91382161 1616.92308292 -814.2587168 1613.01160812 -812.60342407 1609.10018921 C-811.78913885 1607.1694555 -810.97884697 1605.23703238 -810.17269897 1603.30288696 C-809.04927108 1600.60789453 -807.91275847 1597.91877282 -806.7734375 1595.23046875 C-806.4365239 1594.41230682 -806.09961029 1593.5941449 -805.75248718 1592.75119019 C-804.91672367 1590.79710989 -803.96783097 1588.89215054 -803 1587 C-799.63321062 1585.87773687 -798.67647109 1586.13314942 -795.34375 1587.0390625 C-794.41369141 1587.28720703 -793.48363281 1587.53535156 -792.52539062 1587.79101562 C-791.52701172 1588.06623047 -790.52863281 1588.34144531 -789.5 1588.625 C-788.46552734 1588.90279297 -787.43105469 1589.18058594 -786.36523438 1589.46679688 C-784.24523813 1590.03621197 -782.12609398 1590.60880892 -780.0078125 1591.18457031 C-775.84463904 1592.31322286 -771.67269557 1593.40720474 -767.5 1594.5 C-765.94918827 1594.90873853 -764.39840747 1595.31759447 -762.84765625 1595.7265625 C-759.4403794 1596.62332475 -756.03131372 1597.51293426 -752.62109375 1598.3984375 C-750.72654614 1598.89056201 -748.83201527 1599.38275098 -746.9375 1599.875 C-745.96868896 1600.12668945 -744.99987793 1600.37837891 -744.00170898 1600.63769531 C-739.04879526 1601.92880652 -734.10185262 1603.23806763 -729.1640625 1604.5859375 C-715.54399601 1608.30351322 -701.88426735 1611.82733586 -688.1875 1615.25 C-687.33028351 1615.46450806 -686.47306702 1615.67901611 -685.58987427 1615.90002441 C-667.57769345 1620.87371519 -667.57769345 1620.87371519 -649.1953125 1623.69140625 C-647 1624 -647 1624 -644.12890625 1625.0078125 C-638.20156498 1626.75677333 -631.93303921 1626.32802648 -625.8125 1626.3125 C-624.56146484 1626.32861328 -623.31042969 1626.34472656 -622.02148438 1626.36132812 C-610.93388048 1626.36709991 -600.91610041 1624.55928788 -591 1619.5 C-590.32775391 1619.15888184 -589.65550781 1618.81776367 -588.96289062 1618.46630859 C-570.97014093 1608.85052522 -558.91697155 1590.72226949 -552 1572 C-550.51080006 1567.07360402 -549.26400451 1562.09443692 -548.03930664 1557.09716797 C-547.67472576 1555.63986489 -547.30931917 1554.18276817 -546.94316101 1552.7258606 C-545.95936181 1548.80141573 -544.98718481 1544.87417828 -544.0173142 1540.94627142 C-542.99104316 1536.79816585 -541.95427295 1532.65268459 -540.91880798 1528.50686646 C-539.1786327 1521.53330253 -537.44540041 1514.55804435 -535.71704102 1507.58154297 C-533.51881335 1498.70851515 -531.31002675 1489.83815424 -529.09748173 1480.96868706 C-527.17407216 1473.25824308 -525.25480654 1465.54676852 -523.33658671 1457.83503199 C-522.93018941 1456.20141807 -522.5236661 1454.56783548 -522.11701131 1452.93428564 C-516.46835342 1430.26836619 -516.46835342 1430.26836619 -511.13549805 1407.52661133 C-507.00997261 1389.38678695 -502.40834272 1371.36053749 -497.88794994 1353.31608033 C-496.55751896 1348.00332881 -495.22965877 1342.68993467 -493.90142822 1337.37663269 C-491.66050036 1328.41385352 -489.41776827 1319.45152741 -487.17382812 1310.48950195 C-484.91112053 1301.45247662 -482.64996211 1292.41506585 -480.390625 1283.37719727 C-469.00025709 1237.81333405 -457.58759999 1192.25563539 -446.02326965 1146.73558044 C-445.32454177 1143.9851108 -444.62586368 1141.23462852 -443.92724609 1138.48413086 C-443.75911404 1137.82220887 -443.59098198 1137.16028688 -443.41775501 1136.47830665 C-438.37757928 1116.6320239 -433.40393495 1096.76907735 -428.44311523 1076.90283203 C-427.14280692 1071.69564334 -425.84021947 1066.48902729 -424.53714657 1061.28252983 C-423.50602674 1057.16164133 -422.47601377 1053.04047682 -421.44635201 1048.91922379 C-420.96467042 1046.9918368 -420.48264771 1045.06453503 -420.00025749 1043.13732529 C-419.34270369 1040.50963852 -418.68664802 1037.88158227 -418.03100586 1035.25341797 C-417.83846222 1034.48526764 -417.64591858 1033.71711731 -417.44754028 1032.9256897 C-416.54417258 1029.29785162 -415.69090874 1025.67465447 -415 1022 C-411.66666667 1022.66666667 -408.33333333 1023.33333333 -405 1024 C-403.35 1024.33 -401.7 1024.66 -400 1025 C-404.62 1023.68 -409.24 1022.36 -414 1021 C-410.69855379 1002.65815631 -406.04587848 984.64187348 -401.50424147 966.57845855 C-400.36290717 962.03485504 -399.22692471 957.48991325 -398.09024048 952.94514465 C-396.1684273 945.26432087 -394.24316241 937.58436943 -392.31542969 929.9050293 C-389.66555495 919.34892102 -387.02208021 908.79121845 -384.37989235 898.23318398 C-374.88779101 860.30744231 -365.34396885 822.39511826 -355.72285211 784.50190198 C-349.67885622 760.697299 -343.67379833 736.88318253 -337.71777344 713.05639648 C-336.71940094 709.06282297 -335.71928263 705.06969234 -334.71777344 701.0769043 C-326.86451385 669.77595792 -326.86451385 669.77595792 -319.54522705 638.34690857 C-319.02705761 636.11646843 -318.45287901 633.90778424 -317.86523438 631.69482422 C-317.09120974 628.38949441 -316.74263284 625.58478395 -316.734375 622.20703125 C-316.73018555 621.1711084 -316.72599609 620.13518555 -316.72167969 619.06787109 C-316.73102539 617.99359863 -316.74037109 616.91932617 -316.75 615.8125 C-316.75676758 614.69697754 -316.76353516 613.58145508 -316.77050781 612.43212891 C-316.86701046 604.75119143 -317.27031983 597.50522141 -319 590 C-319.24492188 588.83082031 -319.48984375 587.66164063 -319.7421875 586.45703125 C-326.24598943 558.68637256 -344.07378152 537.42375125 -367.8828125 522.5234375 C-381.10840334 514.58573803 -395.67974236 508.83885596 -410.57861328 504.92480469 C-413.66750614 504.08987347 -416.70517642 503.16872452 -419.75390625 502.19921875 C-428.26834349 499.56288862 -436.87783414 497.31443005 -445.5 495.0625 C-446.76505371 494.73093399 -446.76505371 494.73093399 -448.05566406 494.39266968 C-459.76409372 491.32539053 -471.48264055 488.33534639 -483.27978516 485.62597656 C-487.65562566 484.61900698 -492.02724975 483.5940168 -496.3996582 482.57226562 C-500.22181839 481.6794839 -504.04448697 480.78890242 -507.8671875 479.8984375 C-520.54751101 476.94284618 -533.21977446 473.95284996 -545.89306641 470.96728516 C-552.92836731 469.31006377 -559.96422067 467.65518877 -567 466 C-565.665697 458.03799444 -563.90887135 450.24561249 -561.91821289 442.42407227 C-561.61372223 441.21542511 -561.30923157 440.00677795 -560.99551392 438.76150513 C-560.16488397 435.46731369 -559.33105517 432.17396388 -558.4957993 428.88094449 C-557.60805156 425.37752578 -556.72460478 421.87302265 -555.84068298 418.36863708 C-554.15676243 411.69520014 -552.46923029 405.02268225 -550.78029674 398.35051244 C-548.71726096 390.19987853 -546.65828906 382.04821944 -544.59960938 373.89648438 C-544.23192554 372.44065978 -543.86423896 370.98483588 -543.49654961 369.52901268 C-542.94862355 367.35956129 -542.40070246 365.19010865 -541.85280406 363.02065027 C-540.76850977 358.72734 -539.68394323 354.43409862 -538.59917104 350.14090908 C-534.50266092 333.92785881 -530.40951637 317.71398252 -526.34780693 301.49217033 C-525.89480686 299.68311822 -525.44143246 297.87415978 -524.98762703 296.06530952 C-521.92292882 283.84534795 -518.97866543 271.60539049 -516.21875 259.3125 C-514.90959381 253.51730191 -513.46216626 247.75822178 -512 242 C-506.85518143 240.27873915 -502.45723774 241.84676191 -497.40136719 243.17114258 C-495.94988029 243.53777291 -495.94988029 243.53777291 -494.46907043 243.91180992 C-491.24238352 244.72943195 -488.01975584 245.5620442 -484.796875 246.39453125 C-482.51540894 246.97546213 -480.23368542 247.55538271 -477.95172119 248.13435364 C-473.08558234 249.37093275 -468.22112666 250.61385517 -463.35791016 251.86187744 C-455.71914929 253.82196828 -448.07684151 255.76793754 -440.43359375 257.71044922 C-439.16714775 258.03234097 -437.90070175 258.35423271 -436.5958786 258.68587875 C-434.04209516 259.33494736 -431.48830032 259.98397115 -428.93449402 260.63294983 C-425.10569495 261.60640439 -421.27723901 262.58119857 -417.44885254 263.55627441 C-398.03824133 268.49777718 -378.60463077 273.33806383 -359.14902496 278.0989418 C-352.74680798 279.66613566 -346.34581732 281.23832963 -339.9453125 282.8125 C-339.2576115 282.9816221 -338.56991051 283.15074421 -337.86137009 283.32499123 C-320.17866148 287.67652065 -302.52555347 292.14511952 -284.875 296.625 C-283.77871277 296.90313915 -283.77871277 296.90313915 -282.66027832 297.18689728 C-262.09321895 302.40528932 -241.54193346 307.6835848 -221 313 C-221 313.66 -221 314.32 -221 315 C-220.39631592 315.0417334 -219.79263184 315.0834668 -219.1706543 315.12646484 C-212.80419074 315.6527608 -206.95147165 316.9023915 -200.8125 318.625 C-191.54868229 321.13321801 -182.24394171 323.35858249 -172.875 325.4375 C-162.74379337 327.68891386 -152.64307211 330.02881698 -142.5625 332.5 C-130.67845704 335.41129915 -118.75108714 338.07118603 -106.78149414 340.60351562 C-99.74109127 342.11002251 -92.85726446 343.80533393 -86 346 C-85.80977264 345.09616577 -85.61954529 344.19233154 -85.42355347 343.2611084 C-82.0465303 327.52688258 -78.04160401 311.94247453 -74.11870813 296.33790779 C-73.0811677 292.20799893 -72.04679475 288.07729698 -71.01217651 283.94665527 C-68.16432993 272.57916378 -65.31175764 261.21285936 -62.45904541 249.84658813 C-59.84572607 239.43397521 -57.23348557 229.0210946 -54.62510192 218.60724401 C-53.60140177 214.52065205 -52.57672851 210.43430982 -51.54956436 206.34858704 C-47.66213667 190.88486201 -43.82210815 175.41960214 -40.2856741 159.87091064 C-37.04769762 145.71210519 -33.48124036 131.63278216 -29.95319152 117.54411507 C-28.93394092 113.47227268 -27.91703783 109.39984388 -26.8997345 105.32751465 C-25.19957102 98.52325943 -23.49746224 91.71949312 -21.79418945 84.91601562 C-19.82580439 77.0534572 -17.86087716 69.19004037 -15.89764708 61.32619333 C-14.20158969 54.53290448 -12.50370906 47.74007327 -10.80428582 40.94762564 C-9.7934125 36.90724619 -8.78317157 32.8667115 -7.77458763 28.82575989 C-6.83191353 25.04930699 -5.88695775 21.27343243 -4.94020081 17.4980011 C-4.59309409 16.11222545 -4.24679398 14.72624749 -3.90134621 13.34005737 C-3.43124849 11.45423067 -2.95798583 9.56919375 -2.48454285 7.6842041 C-2.22040683 6.62841408 -1.95627081 5.57262405 -1.68413067 4.48484039 C-1 2 -1 2 0 0 Z " fill="#FEFEFE" transform="translate(1841,669)"/>
<path d="M0 0 C8.04478138 0.49979663 15.57831602 2.20879611 23.375 4.1875 C25.96545689 4.82983834 28.5562786 5.47009332 31.1484375 6.10546875 C31.80422791 6.26643036 32.46001831 6.42739197 33.13568115 6.5932312 C39.72883832 8.19930876 46.35836151 9.6110839 53 11 C63.70423319 13.2481516 74.33470911 15.72751829 84.95776367 18.33081055 C93.55414007 20.43054459 102.17346108 22.39674856 110.8125 24.3125 C123.21013938 27.07807205 135.54950915 30.05429097 147.875 33.125 C148.70681793 33.33105865 149.53863586 33.53711731 150.3956604 33.74942017 C160.41744423 36.23627093 170.3502499 38.92181908 180.2421875 41.88330078 C183.30048936 42.79212827 186.36077119 43.66346827 189.44140625 44.4921875 C281.22390065 69.18630528 376.43557045 102.86334036 467 175 C468.11977675 175.99611052 469.23956817 176.99220454 470.359375 177.98828125 C488.50884334 194.27965395 503.77516002 212.88110139 516 234 C516.38639648 234.66435059 516.77279297 235.32870117 517.17089844 236.01318359 C539.84919719 275.52436881 543.80897817 318.52465246 537 363 C536.87141602 363.84433594 536.74283203 364.68867188 536.61035156 365.55859375 C530.46719205 403.63680385 512.04920984 438.00951456 486 466 C485.02353516 467.07507812 485.02353516 467.07507812 484.02734375 468.171875 C473.45786785 479.33193819 460.34643303 488.47472307 447 496 C446.01652588 496.56533447 446.01652588 496.56533447 445.01318359 497.14208984 C427.19493638 507.30933309 407.88318425 514.95388884 388 520 C386.40671875 520.46599609 386.40671875 520.46599609 384.78125 520.94140625 C329.40132205 536.8444261 267.90316582 536.12177808 211 531 C210.31355408 530.9391925 209.62710815 530.87838501 208.91986084 530.81573486 C168.6508876 527.22446739 128.61202548 521.02557751 89 513 C87.68783765 512.7356169 86.3756634 512.47129281 85.06347656 512.20703125 C77.85261481 510.74894578 70.65022396 509.25399081 63.453125 507.72949219 C59.95992278 506.99153346 56.46451715 506.26476361 52.96875 505.5390625 C40.03168791 502.83355912 27.18926972 499.87233688 14.38110352 496.61010742 C6.40339434 494.58162927 -1.59659662 492.69167605 -9.625 490.875 C-17.27469349 489.13627949 -24.84980471 487.28155137 -32.38647461 485.10717773 C-42.4529232 482.24148079 -52.63727846 479.80948082 -62.79638672 477.29760742 C-76.58910347 473.88364057 -90.30612318 470.26785047 -103.9375 466.25 C-105.01451172 465.93417969 -106.09152344 465.61835938 -107.20117188 465.29296875 C-109.80126514 464.53027473 -112.40076866 463.76562422 -115 463 C-113.54835611 454.11418242 -111.4501215 445.42433004 -109.23828125 436.7043457 C-108.85572932 435.18487071 -108.4735003 433.66531438 -108.09156513 432.14568424 C-107.05368877 428.01997441 -106.011385 423.89539459 -104.96832108 419.77099371 C-103.855932 415.36905226 -102.74779038 410.96604171 -101.63920593 406.56314087 C-99.74589348 399.04576452 -97.8501484 391.52900535 -95.95272827 384.01266479 C-92.99672328 372.30251783 -90.04624803 360.59098151 -87.09692383 348.87915039 C-86.35903 345.94910304 -85.62112719 343.01905796 -84.88322324 340.08901316 C-84.39242028 338.14014396 -83.90162391 336.19127311 -83.41083413 334.24240059 C-81.69737911 327.43863229 -79.98332216 320.63501582 -78.26899719 313.83146667 C-70.92520067 284.68564494 -63.59490661 255.53650238 -56.29956055 226.37850952 C-55.23800219 222.13586095 -54.17517626 217.89353352 -53.11108398 213.65151978 C-51.88238101 208.75322151 -50.65600304 203.85434724 -49.43149757 198.95499802 C-49.00201255 197.23799477 -48.57179923 195.52117344 -48.14066124 193.8045845 C-45.73329159 184.21649635 -43.44153913 174.60880462 -41.24267578 164.97070312 C-37.69272981 149.45288095 -33.82358108 134.0172902 -29.95319152 118.57704663 C-28.93378621 114.50838038 -27.91694328 110.43907364 -26.8997345 106.36985779 C-25.19949285 99.56981809 -23.49745514 92.77023009 -21.79418945 85.97094727 C-19.8265327 78.11618057 -17.86140087 70.26078554 -15.89764708 62.40504223 C-13.79471283 53.99263093 -11.68999265 45.58066722 -9.5847342 37.16883731 C-8.98110521 34.75644984 -8.37780951 32.34397924 -7.77458763 29.93148994 C-6.8309023 26.15775091 -5.88602109 22.38431327 -4.94020081 18.61110878 C-4.59350825 17.22726221 -4.24721484 15.84331557 -3.90134621 14.45926285 C-3.43016685 12.57405573 -2.95739805 10.68924609 -2.48454285 8.80445862 C-2.22040683 7.74959039 -1.95627081 6.69472216 -1.68413067 5.60788822 C-1.18887754 3.71999623 -0.61720433 1.85161298 0 0 Z " fill="#F7931A" transform="translate(1752,1943)"/>
<path d="M0 0 C7.01250197 0.72467679 13.79034381 2.16789488 20.66796875 3.6953125 C22.51217155 4.10111038 22.51217155 4.10111038 24.39363098 4.5151062 C27.00216718 5.09001761 29.6103412 5.66634105 32.21801758 6.24511719 C36.10046789 7.10665412 39.98478087 7.95961192 43.86914062 8.8125 C59.11089181 12.17246778 74.2974829 15.71022612 89.45776367 19.41748047 C95.99855862 21.01209182 102.55916524 22.51250959 109.125 24 C128.52986057 28.44832612 147.75208114 33.45612613 166.77685547 39.32226562 C169.56166444 40.17122562 172.35697122 40.98055164 175.15429688 41.78710938 C242.78330111 61.34170138 312.52386557 87.62521734 368 132 C368.97839844 132.76570313 369.95679687 133.53140625 370.96484375 134.3203125 C410.56397919 165.83680503 439.59811371 208.4427121 446.59643555 259.23535156 C447.25622192 265.39016458 447.29663776 271.50277058 447.25 277.6875 C447.24323242 278.99968506 447.23646484 280.31187012 447.22949219 281.66381836 C446.67286066 334.27520668 428.05894306 384.53130854 390.52856445 421.83569336 C373.02977514 438.72337653 351.57867022 450.36551952 329 459 C328.31583008 459.27005859 327.63166016 459.54011719 326.92675781 459.81835938 C270.52207793 481.98613749 203.36298552 480.6992916 144 474 C143.25606995 473.9175 142.51213989 473.835 141.7456665 473.75 C106.57603796 469.83064361 71.53094135 463.72480688 37 456 C36.11586426 455.80341797 35.23172852 455.60683594 34.32080078 455.40429688 C28.83536229 454.18072049 23.35676065 452.92908604 17.88085938 451.66357422 C14.86464704 450.96882294 11.84656032 450.28268121 8.828125 449.59765625 C-14.45730631 444.29510358 -37.63006288 438.54878026 -60.640625 432.15625 C-74.71809858 428.24892337 -88.80012216 424.43838718 -103 421 C-104.05072236 417.75888943 -103.92052997 415.63566351 -103.13726807 412.33842468 C-102.80459742 410.91259803 -102.80459742 410.91259803 -102.46520615 409.4579668 C-102.080725 407.87908696 -102.080725 407.87908696 -101.68847656 406.26831055 C-101.41909397 405.13355884 -101.14971138 403.99880713 -100.87216568 402.829669 C-99.92858987 398.88296594 -98.9674896 394.94089257 -98 391 C-97.82483038 390.28550202 -97.64966076 389.57100404 -97.46918297 388.8348546 C-94.5807415 377.06320878 -91.64162996 365.30430398 -88.69566631 353.54694581 C-87.47733922 348.68263101 -86.26159298 343.81767108 -85.04547119 338.95280457 C-82.99285724 330.74328049 -80.93844117 322.53420914 -78.8828125 314.32543945 C-76.8141193 306.06445476 -74.74696725 297.80308679 -72.68164062 289.54125977 C-62.09994317 247.21204481 -51.49034048 204.8904009 -40.74938059 162.60129142 C-39.85592575 159.08358658 -38.96256332 155.5658583 -38.06933594 152.0480957 C-37.89677056 151.36849195 -37.72420519 150.68888819 -37.54641056 149.98869038 C-32.12845816 128.64763167 -26.77569905 107.29020827 -21.43603516 85.92944336 C-20.29215486 81.35383891 -19.14653934 76.7786739 -17.99951172 72.20385742 C-10.00731276 40.57429751 -10.00731276 40.57429751 -2.57122803 8.81108093 C-2.37015442 7.91089737 -2.16908081 7.01071381 -1.96191406 6.08325195 C-1.71444427 4.95376884 -1.71444427 4.95376884 -1.4619751 3.8014679 C-1 2 -1 2 0 0 Z " fill="#F7931A" transform="translate(1910,1310)"/>
</svg>
