<?xml version="1.0" encoding="UTF-8"?>
<svg version="1.1" xmlns="http://www.w3.org/2000/svg" width="711" height="218">
<path d="M0 0 C5.32813454 -0.80534917 10.74788776 -1.55572742 16 0 C20.30404564 3.87771573 22.51197434 8.52406338 25 13.6875 C25.67257441 14.97765541 26.35093522 16.26481142 27.03515625 17.54882812 C28.32366017 19.9720231 29.56566539 22.4018207 30.78515625 24.86206055 C33.92352134 30.72539277 37.51453539 36.33612 41 42 C41.33 28.14 41.66 14.28 42 0 C46.95 0 51.9 0 57 0 C57 23.1 57 46.2 57 70 C52.05 70 47.1 70 42 70 C38.92658112 66.76035479 37.8057266 64.90730302 36 61 C34.98343425 59.26590262 33.96556805 57.53242039 32.92459106 55.81286621 C31.78926171 53.93406184 30.67932843 52.04238436 29.57617188 50.14453125 C29.20419678 49.50467285 28.83222168 48.86481445 28.44897461 48.20556641 C28.07393799 47.56022949 27.69890137 46.91489258 27.3125 46.25 C26.17162251 44.29303624 25.02997192 42.33652507 23.88822937 40.38006592 C22.85955845 38.61639911 21.83267883 36.85168786 20.8059082 35.08691406 C19.22250134 32.38033079 17.61331712 29.68886187 16 27 C16 41.19 16 55.38 16 70 C11.05 70 6.1 70 1 70 C-0.25480488 55.52528227 -0.11184681 41.08256697 -0.0625 26.5625 C-0.05747502 23.98112066 -0.05291388 21.39974037 -0.04882812 18.81835938 C-0.03790146 12.54555198 -0.02124244 6.2727805 0 0 Z " fill="#1D3F5B" transform="translate(7,126)"/>
<path d="M0 0 C6.435 -0.04125 12.87 -0.0825 19.5 -0.125 C21.51544922 -0.14320801 23.53089844 -0.16141602 25.60742188 -0.18017578 C27.22786189 -0.18602403 28.84830486 -0.1911188 30.46875 -0.1953125 C31.29149414 -0.20554443 32.11423828 -0.21577637 32.96191406 -0.22631836 C39.93780917 -0.22839699 47.44650452 0.3720871 53 5 C56.98332432 10.38287071 57.37831318 15.11723552 57.4375 21.625 C57.4475708 22.35348145 57.4576416 23.08196289 57.46801758 23.83251953 C57.38055084 29.28027047 56.30779363 33.52778341 52.46484375 37.64453125 C48.22222222 40.88888889 48.22222222 40.88888889 46 42 C47.35029372 45.70771944 49.03012686 48.75992085 51.2578125 52.01171875 C51.88300781 52.93404297 52.50820312 53.85636719 53.15234375 54.80664062 C54.12880859 56.23266602 54.12880859 56.23266602 55.125 57.6875 C56.42346426 59.58437587 57.71795558 61.48397951 59.0078125 63.38671875 C59.58160645 64.22420654 60.15540039 65.06169434 60.74658203 65.92456055 C62 68 62 68 62 70 C46.17570755 71.50707547 46.17570755 71.50707547 41.59765625 68.3359375 C39.75927736 65.64803878 38.38541941 62.94971575 37 60 C35.8950162 57.84655198 34.75411438 55.72661538 33.55664062 53.62304688 C32.74461416 52.1965828 31.97375367 50.74565896 31.25195312 49.27148438 C30.01397286 46.87214483 30.01397286 46.87214483 27 44 C23.04 43.67 19.08 43.34 15 43 C15 51.91 15 60.82 15 70 C10.05 70 5.1 70 0 70 C0 46.9 0 23.8 0 0 Z M15 13 C15 18.61 15 24.22 15 30 C18.56377018 30.13510502 22.12241117 30.23417099 25.6875 30.3125 C26.69490234 30.35439453 27.70230469 30.39628906 28.74023438 30.43945312 C34.86275732 30.56326753 34.86275732 30.56326753 40.17578125 27.73828125 C42.90614712 23.63980914 42.62372412 21.83386191 42 17 C40.45661909 14.82523599 39.36334727 14.18167363 37 13 C35.3325394 12.91573906 33.66174813 12.89274857 31.9921875 12.90234375 C31.00605469 12.90556641 30.01992187 12.90878906 29.00390625 12.91210938 C27.45509766 12.92467773 27.45509766 12.92467773 25.875 12.9375 C24.83472656 12.94201172 23.79445312 12.94652344 22.72265625 12.95117188 C20.14841313 12.96298033 17.57419947 12.98091615 15 13 Z " fill="#1D3F5B" transform="translate(148,125)"/>
<path d="M0 0 C6.435 -0.04125 12.87 -0.0825 19.5 -0.125 C21.51544922 -0.14320801 23.53089844 -0.16141602 25.60742188 -0.18017578 C27.22786189 -0.18602403 28.84830486 -0.1911188 30.46875 -0.1953125 C31.29149414 -0.20554443 32.11423828 -0.21577637 32.96191406 -0.22631836 C39.93780917 -0.22839699 47.44650452 0.3720871 53 5 C56.98332432 10.38287071 57.37831318 15.11723552 57.4375 21.625 C57.4475708 22.35348145 57.4576416 23.08196289 57.46801758 23.83251953 C57.38055084 29.28027047 56.30779363 33.52778341 52.46484375 37.64453125 C48.22222222 40.88888889 48.22222222 40.88888889 46 42 C47.35029372 45.70771944 49.03012686 48.75992085 51.2578125 52.01171875 C51.88300781 52.93404297 52.50820313 53.85636719 53.15234375 54.80664062 C54.12880859 56.23266602 54.12880859 56.23266602 55.125 57.6875 C56.42346426 59.58437587 57.71795558 61.48397951 59.0078125 63.38671875 C59.58160645 64.22420654 60.15540039 65.06169434 60.74658203 65.92456055 C62 68 62 68 62 70 C46.17570755 71.50707547 46.17570755 71.50707547 41.59765625 68.3359375 C39.75927736 65.64803878 38.38541941 62.94971575 37 60 C35.8950162 57.84655198 34.75411438 55.72661538 33.55664062 53.62304688 C32.74461416 52.1965828 31.97375367 50.74565896 31.25195312 49.27148438 C30.01397286 46.87214483 30.01397286 46.87214483 27 44 C23.04 43.67 19.08 43.34 15 43 C15 51.91 15 60.82 15 70 C10.05 70 5.1 70 0 70 C0 46.9 0 23.8 0 0 Z M15 13 C15 18.61 15 24.22 15 30 C18.56377018 30.13510502 22.12241117 30.23417099 25.6875 30.3125 C26.69490234 30.35439453 27.70230469 30.39628906 28.74023438 30.43945312 C34.86275732 30.56326753 34.86275732 30.56326753 40.17578125 27.73828125 C42.90614712 23.63980914 42.62372412 21.83386191 42 17 C40.45661909 14.82523599 39.36334727 14.18167363 37 13 C35.3325394 12.91573906 33.66174813 12.89274857 31.9921875 12.90234375 C31.00605469 12.90556641 30.01992188 12.90878906 29.00390625 12.91210938 C27.45509766 12.92467773 27.45509766 12.92467773 25.875 12.9375 C24.83472656 12.94201172 23.79445313 12.94652344 22.72265625 12.95117188 C20.14841313 12.96298033 17.57419947 12.98091615 15 13 Z " fill="#1D3F5B" transform="translate(404,124)"/>
<path d="M0 0 C0.87551514 0.00757324 1.75103027 0.01514648 2.65307617 0.02294922 C11.71467246 0.25325043 19.86086023 2.14499536 26.625 8.53515625 C35.19416386 19.40281979 34.94134942 33.30221103 34.125 46.4375 C32.73033559 55.56434801 29.23090687 62.24393699 22.05078125 68.1171875 C12.87731147 74.4065035 0.68023839 74.46786394 -9.9375 72.8125 C-17.83523095 70.97932239 -24.02215986 67.44130091 -28.375 60.5 C-32.63457017 52.88478007 -33.21520215 45.66280344 -33.1875 37.125 C-33.20361328 36.14337891 -33.21972656 35.16175781 -33.23632812 34.15039062 C-33.24291223 24.20180081 -31.37485351 15.28199186 -24.37890625 7.84765625 C-17.40773539 1.26287823 -9.32767994 -0.11341191 0 0 Z M-13.875 17.4375 C-17.81427837 23.74034539 -18.0805093 29.46888335 -18.125 36.6875 C-18.145625 37.50863281 -18.16625 38.32976562 -18.1875 39.17578125 C-18.22582557 45.22163916 -17.65353679 51.21099092 -13.52880859 56.00073242 C-8.29447709 60.70594674 -3.09003461 60.74836361 3.625 60.6484375 C8.75401536 60.21567683 12.00098776 58.7437845 15.4375 54.75 C20.25451064 45.29438652 20.58545434 34.10972752 18 23.875 C16.3846593 19.19820407 14.25245523 17.10314817 10.125 14.4375 C2.21542411 11.8009747 -7.38467364 11.95677996 -13.875 17.4375 Z " fill="#1D3F5B" transform="translate(104.875,124.5625)"/>
<path d="M0 0 C0.87551514 0.00757324 1.75103027 0.01514648 2.65307617 0.02294922 C11.71467246 0.25325043 19.86086023 2.14499536 26.625 8.53515625 C35.19416386 19.40281979 34.94134942 33.30221103 34.125 46.4375 C32.73033559 55.56434801 29.23090687 62.24393699 22.05078125 68.1171875 C12.87731147 74.4065035 0.68023839 74.46786394 -9.9375 72.8125 C-17.83523095 70.97932239 -24.02215986 67.44130091 -28.375 60.5 C-32.63457017 52.88478007 -33.21520215 45.66280344 -33.1875 37.125 C-33.20361328 36.14337891 -33.21972656 35.16175781 -33.23632812 34.15039062 C-33.24291223 24.20180081 -31.37485351 15.28199186 -24.37890625 7.84765625 C-17.40773539 1.26287823 -9.32767994 -0.11341191 0 0 Z M-13.875 17.4375 C-17.81427837 23.74034539 -18.0805093 29.46888335 -18.125 36.6875 C-18.145625 37.50863281 -18.16625 38.32976562 -18.1875 39.17578125 C-18.22582557 45.22163916 -17.65353679 51.21099092 -13.52880859 56.00073242 C-8.29447709 60.70594674 -3.09003461 60.74836361 3.625 60.6484375 C8.75401536 60.21567683 12.00098776 58.7437845 15.4375 54.75 C20.25451064 45.29438652 20.58545434 34.10972752 18 23.875 C16.3846593 19.19820407 14.25245523 17.10314817 10.125 14.4375 C2.21542411 11.8009747 -7.38467364 11.95677996 -13.875 17.4375 Z " fill="#1D3F5B" transform="translate(674.875,121.5625)"/>
<path d="M0 0 C4.95 0 9.9 0 15 0 C15 8.91 15 17.82 15 27 C23.91 27 32.82 27 42 27 C42 18.09 42 9.18 42 0 C46.95 0 51.9 0 57 0 C57 23.1 57 46.2 57 70 C52.05 70 47.1 70 42 70 C42 59.77 42 49.54 42 39 C37.545 39.495 37.545 39.495 33 40 C31.39564643 40.06811142 29.78934842 40.10955073 28.18359375 40.09765625 C27.00893555 40.09282227 27.00893555 40.09282227 25.81054688 40.08789062 C25.02744141 40.07951172 24.24433594 40.07113281 23.4375 40.0625 C22.21063477 40.05573242 22.21063477 40.05573242 20.95898438 40.04882812 C18.97262353 40.03721198 16.9863012 40.01928448 15 40 C15.16371094 41.0828125 15.32742188 42.165625 15.49609375 43.28125 C16.17178024 48.68674192 16.1088986 54.06065617 16.0625 59.5 C16.05798828 60.51320312 16.05347656 61.52640625 16.04882812 62.5703125 C16.0371461 65.04690093 16.01921455 67.52345856 16 70 C11.05 70 6.1 70 1 70 C-0.25480488 55.52528227 -0.11184681 41.08256697 -0.0625 26.5625 C-0.05747502 23.98112066 -0.05291388 21.39974037 -0.04882812 18.81835938 C-0.03790145 12.54554921 -0.02069176 6.27278524 0 0 Z " fill="#1D3F5B" transform="translate(269,125)"/>
<path d="M0 0 C42.02702703 0 42.02702703 0 49 6 C52.7678119 11.44162962 53.63268575 15.38614128 53.5 21.9375 C53.51546875 22.69740234 53.5309375 23.45730469 53.546875 24.24023438 C53.50807619 29.91941001 52.20073498 34.2799288 49 39 C47.03515625 40.83984375 47.03515625 40.83984375 45.0625 41.9375 C44.41410156 42.31777344 43.76570312 42.69804687 43.09765625 43.08984375 C39.1225075 44.81462896 35.21289569 45.1240055 30.91796875 45.09765625 C30.0777417 45.09515869 29.23751465 45.09266113 28.37182617 45.09008789 C26.79558472 45.07643188 26.79558472 45.07643188 25.1875 45.0625 C20.1446875 45.0315625 20.1446875 45.0315625 15 45 C15 53.25 15 61.5 15 70 C10.05 70 5.1 70 0 70 C0 46.9 0 23.8 0 0 Z M15 13 C15 19.27 15 25.54 15 32 C19.0528125 32.0928125 19.0528125 32.0928125 23.1875 32.1875 C24.02949951 32.21481201 24.87149902 32.24212402 25.73901367 32.27026367 C30.31952096 32.32089807 33.28298447 31.98082993 37 29 C38.22691067 26.54617866 38.20175931 24.80015897 38.25 22.0625 C38.27578125 21.18722656 38.3015625 20.31195313 38.328125 19.41015625 C37.93770992 16.54246454 37.25322599 15.74460945 35 14 C32.703463 12.8517315 31.41686833 12.88438825 28.8671875 12.90234375 C28.14128418 12.90484131 27.41538086 12.90733887 26.66748047 12.90991211 C25.74596191 12.91901611 24.82444336 12.92812012 23.875 12.9375 C19.481875 12.9684375 19.481875 12.9684375 15 13 Z " fill="#1D3F5B" transform="translate(530,123)"/>
<path d="M0 0 C4.9068138 5.18720316 7.01858721 10.29902326 8.1875 17.3125 C2.9075 17.3125 -2.3725 17.3125 -7.8125 17.3125 C-8.8025 15.3325 -9.7925 13.3525 -10.8125 11.3125 C-13.19731556 8.83897139 -14.43884654 8.36117516 -17.87109375 7.9140625 C-18.98613281 7.92179688 -20.10117187 7.92953125 -21.25 7.9375 C-22.91869141 7.92589844 -22.91869141 7.92589844 -24.62109375 7.9140625 C-28.87013891 8.44454305 -31.49802755 9.99802755 -34.5 13 C-39.25622925 21.38002297 -38.91703164 32.91829733 -37.3125 42.20703125 C-35.92747047 46.9523313 -34.20880576 49.73905273 -29.8125 52.3125 C-24.78968966 54.39090428 -19.1605193 53.67197181 -14.0625 52.3125 C-9.64776121 49.59573767 -8.75672259 47.05640311 -6.8125 42.3125 C-1.8625 42.3125 3.0875 42.3125 8.1875 42.3125 C6.90483224 50.70814351 5.04582772 56.83059449 -1.375 62.625 C-11.74427556 67.71537164 -23.48179384 68.93198297 -34.68359375 66.06640625 C-40.82949407 63.88996816 -46.56014561 60.06488482 -49.8125 54.3125 C-55.71133569 41.76055128 -56.1806805 24.4950298 -51.71875 11.3984375 C-48.5939495 4.20600876 -43.29738987 -1.51476658 -36 -4.5625 C-23.69362135 -8.09371174 -10.83653937 -6.50192362 0 0 Z " fill="#1D3F5B" transform="translate(387.8125,128.6875)"/>
<path d="M0 0 C0.66 0 1.32 0 2 0 C2.42595459 1.23298828 2.85190918 2.46597656 3.29077148 3.73632812 C5.33740915 9.65833896 7.3870887 15.57929481 9.4375 21.5 C9.81293945 22.58446411 10.18837891 23.66892822 10.57519531 24.78625488 C14.96563367 37.46183026 19.3845767 50.12647314 23.87890625 62.765625 C24.2693663 63.86414795 24.65982635 64.9626709 25.06211853 66.09448242 C26.9454839 71.38978664 28.83385407 76.68324939 30.72827148 81.97460938 C31.4126712 83.89450504 32.09700116 85.81442556 32.78125 87.734375 C33.09401382 88.60306213 33.40677765 89.47174927 33.72901917 90.36676025 C35.10030004 94.22254163 36.36823757 97.93896503 37 102 C33.99789561 100.64563311 31.83584825 99.11315928 29.4609375 96.83984375 C28.80254883 96.21505127 28.14416016 95.59025879 27.46582031 94.9465332 C26.43086426 93.95206177 26.43086426 93.95206177 25.375 92.9375 C23.9408516 91.57473382 22.50595679 90.2127527 21.0703125 88.8515625 C20.02665527 87.8601123 20.02665527 87.8601123 18.96191406 86.84863281 C15.70346762 83.77832962 12.36597767 80.80166202 9.015625 77.83203125 C7 76 7 76 5.046875 73.69921875 C3.12920109 71.74630212 3.12920109 71.74630212 0.55078125 71.9609375 C-2.71050567 73.28942497 -4.41044901 75.05608602 -6.8125 77.625 C-10.32240394 81.2794294 -13.86133793 84.71230542 -17.71484375 87.99609375 C-19.61814906 89.6651461 -21.47171692 91.36492334 -23.31640625 93.09765625 C-23.90252686 93.64695801 -24.48864746 94.19625977 -25.0925293 94.76220703 C-26.26830903 95.8672886 -27.44044121 96.9762657 -28.60864258 98.08935547 C-32.77920722 102 -32.77920722 102 -35 102 C-32.6676464 93.91465304 -29.98777505 85.96199547 -27.24609375 78.0078125 C-26.78097032 76.65432862 -26.31597178 75.30080182 -25.85108948 73.94723511 C-24.87650794 71.11103751 -23.9005562 68.27531635 -22.92358398 65.43994141 C-21.70333243 61.89824298 -20.48625282 58.35546505 -19.27016258 54.81233597 C-12.98067558 36.49271417 -6.56386308 18.22323681 0 0 Z M-1 20 C-3.76418179 27.91581419 -6.52027575 35.83437697 -9.26599216 43.75661278 C-10.54109485 47.43484957 -11.81899725 51.1120638 -13.10327148 54.78710938 C-14.34178201 58.33152702 -15.57297208 61.87840822 -16.7990551 65.4271431 C-17.26891347 66.7828837 -17.74143501 68.13770425 -18.21661568 69.49158859 C-18.87997946 71.38307493 -19.53314351 73.27812921 -20.18579102 75.17333984 C-20.74871605 76.79216568 -20.74871605 76.79216568 -21.32301331 78.44369507 C-22.29251149 80.96605045 -22.29251149 80.96605045 -21 83 C-20.38125 82.36384766 -20.38125 82.36384766 -19.75 81.71484375 C-16.00655258 77.91290497 -12.1597768 74.32150211 -8.08984375 70.87109375 C-7.40019531 70.25363281 -6.71054687 69.63617188 -6 69 C-4.97898193 68.17749756 -3.95796387 67.35499512 -2.90600586 66.50756836 C0.43914872 63.1280415 0.68222204 60.40255719 0.67977905 55.76419067 C0.64881134 54.85458588 0.61784363 53.94498108 0.5859375 53.0078125 C0.57744781 52.06187225 0.56895813 51.11593201 0.56021118 50.1413269 C0.52675626 47.13470165 0.45149222 44.13080762 0.375 41.125 C0.34489015 39.08076804 0.31751614 37.03649382 0.29296875 34.9921875 C0.22699077 29.99374727 0.12352396 24.99733587 0 20 C-0.33 20 -0.66 20 -1 20 Z " fill="#1D3F5B" transform="translate(330,0)"/>
<path d="M0 0 C5.94 0 11.88 0 18 0 C18.67546875 1.44632812 19.3509375 2.89265625 20.046875 4.3828125 C20.94766585 6.29699305 21.84872149 8.21104901 22.75 10.125 C23.1934375 11.07632813 23.636875 12.02765625 24.09375 13.0078125 C26.42687786 17.94855385 28.80370314 22.56401791 32 27 C34.60941902 24.6733705 35.96438159 22.37181605 37.4453125 19.21875 C37.88230469 18.29449219 38.31929688 17.37023437 38.76953125 16.41796875 C39.44048828 14.97357422 39.44048828 14.97357422 40.125 13.5 C40.58003906 12.53707031 41.03507812 11.57414063 41.50390625 10.58203125 C43.96273862 5.37685123 43.96273862 5.37685123 46 0 C51.94 0 57.88 0 64 0 C59.68099414 9.39358248 55.3167606 18.73183751 50.25 27.75 C49.8981665 28.37970703 49.54633301 29.00941406 49.18383789 29.65820312 C46.36223364 34.59749632 46.36223364 34.59749632 44.65161133 36.49829102 C39.54515855 42.29995855 40.22109278 49.04335577 40.1875 56.4375 C40.16236328 57.74138672 40.13722656 59.04527344 40.11132812 60.38867188 C40.05265681 63.59212559 40.02341725 66.79609462 40 70 C35.05 70 30.1 70 25 70 C25.04382813 68.22496094 25.08765625 66.44992188 25.1328125 64.62109375 C25.22475731 50.3090245 24.60122755 41.12335446 15.52490234 30.05273438 C12.37365707 25.81071224 9.99308815 21.08496829 7.5 16.4375 C6.98397217 15.49608154 6.46794434 14.55466309 5.9362793 13.5847168 C3.46756798 9.0197981 1.66323721 4.98971162 0 0 Z " fill="#1D3F5B" transform="translate(461,124)"/>
<path d="M0 0 C18.48 0 36.96 0 56 0 C56.495 6.435 56.495 6.435 57 13 C50.07 13 43.14 13 36 13 C36 31.81 36 50.62 36 70 C31.05 70 26.1 70 21 70 C21 51.19 21 32.38 21 13 C14.07 13 7.14 13 0 13 C0 8.71 0 4.42 0 0 Z " fill="#1D3F5B" transform="translate(207,125)"/>
<path d="M0 0 C18.48 0 36.96 0 56 0 C56.495 6.435 56.495 6.435 57 13 C50.07 13 43.14 13 36 13 C36 31.81 36 50.62 36 70 C31.05 70 26.1 70 21 70 C21 51.19 21 32.38 21 13 C14.07 13 7.14 13 0 13 C0 8.71 0 4.42 0 0 Z " fill="#1D3F5B" transform="translate(586,123)"/>
</svg>
